<svg width="84" height="48" viewBox="0 0 84 48" fill="none" xmlns="http://www.w3.org/2000/svg">
<path d="M56.8246 0.836188C58.7895 -0.278729 61.2105 -0.278729 63.1754 0.836187L78.8246 9.71549C80.7895 10.8304 82 12.8909 82 15.1207V32.8793C82 35.1091 80.7895 37.1696 78.8246 38.2845L63.1754 47.1638C61.2105 48.2787 58.7895 48.2787 56.8246 47.1638L41.1754 38.2845C39.2105 37.1696 38 35.1091 38 32.8793V15.1207C38 12.8909 39.2105 10.8304 41.1754 9.71549L56.8246 0.836188Z" fill="#006DFF"/>
<path d="M46.5 17.0041C46.5258 16.9005 46.534 16.7928 46.5653 16.6905C46.6891 16.2801 46.938 15.9746 47.3175 15.762C47.882 15.4444 48.4397 15.1147 49.0001 14.7904C50.374 13.9951 51.7464 13.1984 53.1203 12.4058C53.3053 12.2994 53.4632 12.2403 53.7256 12.2402C53.8297 12.2402 54.1962 12.2416 54.3785 12.2416C54.505 12.2376 54.6193 12.2672 54.7308 12.321C54.9661 12.4367 55.1878 12.5767 55.4136 12.7086C56.9806 13.6183 58.5476 14.5293 60.1146 15.4417C60.312 15.5561 60.5172 15.6584 60.6955 15.801C61.1198 16.1388 61.3593 16.5762 61.3675 17.1171C61.3783 17.9057 61.3701 18.6943 61.3716 19.4843C61.3716 19.5219 61.3564 19.5394 61.3267 19.5569C60.467 20.0481 59.6073 20.542 58.7462 21.0332C58.7272 21.044 58.7068 21.0534 58.6796 21.0669C58.6796 21.0345 58.6796 21.0103 58.6796 20.9875C58.6796 20.2635 58.6823 19.5394 58.6796 18.8155C58.6769 18.1466 58.3953 17.6285 57.8131 17.28C56.812 16.6798 55.8122 16.0796 54.8083 15.4834C54.6111 15.3663 54.388 15.3058 54.1609 15.2748C53.8181 15.2291 53.4862 15.2681 53.176 15.4229C52.9788 15.5211 52.7897 15.6382 52.5979 15.7485C51.7587 16.2317 50.9154 16.708 50.0815 17.1992C49.5075 17.537 49.1974 18.0417 49.1946 18.7105C49.1906 19.8624 49.1892 21.0144 49.1946 22.1663C49.1974 22.8257 49.4898 23.3317 50.0611 23.6749C51.0554 24.2709 52.0498 24.8712 53.0482 25.4592C53.3787 25.6543 53.7473 25.7203 54.1337 25.6852C54.4071 25.6612 54.6546 25.5643 54.8886 25.4244C56.1413 24.6775 57.3928 23.9292 58.651 23.1931C59.1693 22.8903 59.7011 22.6091 60.2301 22.3265C61.5319 21.6294 62.7957 20.865 64.073 20.1262C64.4877 19.8867 64.8904 19.6283 65.3148 19.4076C65.8903 19.1088 66.4845 19.0779 67.06 19.4076C68.8773 20.4451 70.6891 21.4907 72.5049 22.531C72.7226 22.6561 72.9417 22.7773 73.1186 22.9589C73.4327 23.2833 73.6027 23.6681 73.6178 24.1161C73.6219 24.2347 73.619 24.3544 73.619 24.4728C73.619 26.5776 73.6219 28.6824 73.6178 30.7857C73.6163 31.3912 73.3619 31.8796 72.8546 32.2216C72.6139 32.3829 72.3527 32.5176 72.101 32.6616C70.9271 33.3357 69.7519 34.0101 68.578 34.6843C68.0774 34.9723 67.5756 35.2588 67.0749 35.5468C66.5995 35.8216 65.7933 35.8351 65.3244 35.5629C63.4281 34.4728 61.5292 33.3883 59.6358 32.2929C59.0591 31.9591 58.7557 31.4476 58.7517 30.7802C58.7462 30.0429 58.7517 29.3054 58.7489 28.5679C58.7489 28.51 58.7693 28.4817 58.8183 28.4548C59.5651 28.0284 60.312 27.6002 61.0572 27.1723C61.1824 27.101 61.3075 27.0297 61.4421 26.9529C61.4421 26.988 61.4421 27.011 61.4421 27.035C61.4421 27.7591 61.4421 28.4832 61.4421 29.207C61.4421 29.2838 61.4476 29.3606 61.4599 29.4345C61.5523 29.9836 61.8367 30.4048 62.3277 30.6861C63.2092 31.192 64.0893 31.698 64.9694 32.2053C65.255 32.3709 65.538 32.5377 65.8711 32.5944C66.2901 32.6671 66.6888 32.6186 67.0572 32.4019C68.0299 31.8326 68.9997 31.2607 69.9695 30.6888C70.228 30.5366 70.4428 30.3362 70.6019 30.0818C70.7803 29.7979 70.8604 29.4883 70.8604 29.1559C70.8604 28.031 70.8604 26.9059 70.8604 25.781C70.8604 25.7136 70.8592 25.6464 70.8523 25.5789C70.7992 24.976 70.5151 24.5145 69.9859 24.2078C69.1574 23.7273 68.3277 23.2509 67.4966 22.7759C67.2722 22.6467 67.0572 22.4973 66.8138 22.4031C66.282 22.1973 65.7542 22.1905 65.2509 22.4785C63.8376 23.2859 62.4283 24.1001 61.0178 24.9115C58.9625 26.093 56.9099 27.2774 54.8519 28.4522C54.3281 28.751 53.7718 28.7954 53.2087 28.553C53.0183 28.4709 52.8441 28.354 52.6646 28.2504C50.9194 27.2491 49.1756 26.2478 47.4318 25.2468C46.9992 24.9991 46.6972 24.6492 46.5626 24.1675C46.5354 24.0717 46.5218 23.9709 46.5027 23.874C46.5 21.5849 46.5 19.2945 46.5 17.0041Z" fill="white"/>
<circle cx="24" cy="24" r="24" fill="#8247E5"/>
<path d="M10.5 17.0041C10.5258 16.9005 10.534 16.7928 10.5653 16.6905C10.6891 16.2801 10.938 15.9746 11.3175 15.762C11.882 15.4444 12.4397 15.1147 13.0001 14.7904C14.374 13.9951 15.7464 13.1984 17.1203 12.4058C17.3053 12.2994 17.4632 12.2403 17.7256 12.2402C17.8297 12.2402 18.1962 12.2416 18.3785 12.2416C18.505 12.2376 18.6193 12.2672 18.7308 12.321C18.9661 12.4367 19.1878 12.5767 19.4136 12.7086C20.9806 13.6183 22.5476 14.5293 24.1146 15.4417C24.312 15.5561 24.5172 15.6584 24.6955 15.801C25.1198 16.1388 25.3593 16.5762 25.3675 17.1171C25.3783 17.9057 25.3701 18.6943 25.3716 19.4843C25.3716 19.5219 25.3564 19.5394 25.3267 19.5569C24.467 20.0481 23.6073 20.542 22.7462 21.0332C22.7272 21.044 22.7068 21.0534 22.6796 21.0669C22.6796 21.0345 22.6796 21.0103 22.6796 20.9875C22.6796 20.2635 22.6823 19.5394 22.6796 18.8155C22.6769 18.1466 22.3953 17.6285 21.8131 17.28C20.812 16.6798 19.8122 16.0796 18.8083 15.4834C18.6111 15.3663 18.388 15.3058 18.1609 15.2748C17.8181 15.2291 17.4862 15.2681 17.176 15.4229C16.9788 15.5211 16.7897 15.6382 16.5979 15.7485C15.7587 16.2317 14.9154 16.708 14.0815 17.1992C13.5075 17.537 13.1974 18.0417 13.1946 18.7105C13.1906 19.8624 13.1892 21.0144 13.1946 22.1663C13.1974 22.8257 13.4898 23.3317 14.0611 23.6749C15.0554 24.2709 16.0498 24.8712 17.0482 25.4592C17.3787 25.6543 17.7473 25.7203 18.1337 25.6852C18.4071 25.6612 18.6546 25.5643 18.8886 25.4244C20.1413 24.6775 21.3928 23.9292 22.651 23.1931C23.1693 22.8903 23.7011 22.6091 24.2301 22.3265C25.5319 21.6294 26.7957 20.865 28.073 20.1262C28.4877 19.8867 28.8904 19.6283 29.3148 19.4076C29.8903 19.1088 30.4845 19.0779 31.06 19.4076C32.8773 20.4451 34.6891 21.4907 36.5049 22.531C36.7226 22.6561 36.9417 22.7773 37.1186 22.9589C37.4327 23.2833 37.6027 23.6681 37.6178 24.1161C37.6219 24.2347 37.619 24.3544 37.619 24.4728C37.619 26.5776 37.6219 28.6824 37.6178 30.7857C37.6163 31.3912 37.3619 31.8796 36.8546 32.2216C36.6139 32.3829 36.3527 32.5176 36.101 32.6616C34.9271 33.3357 33.7519 34.0101 32.578 34.6843C32.0774 34.9723 31.5756 35.2588 31.0749 35.5468C30.5995 35.8216 29.7933 35.8351 29.3244 35.5629C27.4281 34.4728 25.5292 33.3883 23.6358 32.2929C23.0591 31.9591 22.7557 31.4476 22.7517 30.7802C22.7462 30.0429 22.7517 29.3054 22.7489 28.5679C22.7489 28.51 22.7693 28.4817 22.8183 28.4548C23.5651 28.0284 24.312 27.6002 25.0572 27.1723C25.1824 27.101 25.3075 27.0297 25.4421 26.9529C25.4421 26.988 25.4421 27.011 25.4421 27.035C25.4421 27.7591 25.4421 28.4832 25.4421 29.207C25.4421 29.2838 25.4476 29.3606 25.4599 29.4345C25.5523 29.9836 25.8367 30.4048 26.3277 30.6861C27.2092 31.192 28.0893 31.698 28.9694 32.2053C29.255 32.3709 29.538 32.5377 29.8711 32.5944C30.2901 32.6671 30.6888 32.6186 31.0572 32.4019C32.0299 31.8326 32.9997 31.2607 33.9695 30.6888C34.228 30.5366 34.4428 30.3362 34.6019 30.0818C34.7803 29.7979 34.8604 29.4883 34.8604 29.1559C34.8604 28.031 34.8604 26.9059 34.8604 25.781C34.8604 25.7136 34.8592 25.6464 34.8523 25.5789C34.7992 24.976 34.5151 24.5145 33.9859 24.2078C33.1574 23.7273 32.3277 23.2509 31.4966 22.7759C31.2722 22.6467 31.0572 22.4973 30.8138 22.4031C30.282 22.1973 29.7542 22.1905 29.2509 22.4785C27.8376 23.2859 26.4283 24.1001 25.0178 24.9115C22.9625 26.093 20.9099 27.2774 18.8519 28.4522C18.3281 28.751 17.7718 28.7954 17.2087 28.553C17.0183 28.4709 16.8441 28.354 16.6646 28.2504C14.9194 27.2491 13.1756 26.2478 11.4318 25.2468C10.9992 24.9991 10.6972 24.6492 10.5626 24.1675C10.5354 24.0717 10.5218 23.9709 10.5027 23.874C10.5 21.5849 10.5 19.2945 10.5 17.0041Z" fill="white"/>
</svg>
