<svg width="24" height="24" viewBox="0 0 24 24" fill="none" xmlns="http://www.w3.org/2000/svg">
<path fill-rule="evenodd" clip-rule="evenodd" d="M2 5C2 4.44772 2.44772 4 3 4H20.9977C21.55 4 21.9977 4.44772 21.9977 5C21.9977 5.55228 21.55 6 20.9977 6H3C2.44772 6 2 5.55228 2 5ZM2 11.9971C2 11.4448 2.44772 10.9971 3 10.9971H20.9977C21.55 10.9971 21.9977 11.4448 21.9977 11.9971C21.9977 12.5494 21.55 12.9971 20.9977 12.9971H3C2.44772 12.9971 2 12.5494 2 11.9971ZM3 17.9956C2.44772 17.9956 2 18.4433 2 18.9956C2 19.5479 2.44772 19.9956 3 19.9956L20.9977 19.9956C21.55 19.9956 21.9977 19.5479 21.9977 18.9956C21.9977 18.4433 21.55 17.9956 20.9977 17.9956L3 17.9956Z" fill="white"/>
</svg>
