<svg width="154" height="150" viewBox="0 0 154 150" fill="none" xmlns="http://www.w3.org/2000/svg">
<rect width="154" height="150" rx="16" fill="white"/>
<g clip-path="url(#clip0_505_566)">
<path d="M41.5686 60.2558L44.4828 60.3125C46.487 60.1836 48.548 60.0019 50.2772 60.1011C50.244 59.6603 50.5256 59.6384 50.4981 59.1989C49.241 58.3148 46.6339 58.7414 44.3833 58.7414C42.8096 58.7414 40.7533 58.1072 40.375 59.7995C40.4243 60.4272 41.0946 60.2107 41.5686 60.2558Z" fill="#CC1212"/>
<path d="M37.5787 63.6875C37.9307 62.6348 38.7044 62.0774 38.6872 60.5762C38.3927 60.4489 38.1677 60.2399 37.6774 60.3378C36.9166 60.8962 36.6813 63.0475 37.5787 63.6875Z" fill="#CC1212"/>
<path d="M38.2329 82.3187C37.6091 81.9993 37.46 82.8866 37.032 83.0868C36.9728 84.2582 36.9989 85.368 37.4338 86.1437C36.9933 88.7945 37.032 84.3382 37.032 87.3029C37.032 88.6633 36.7326 90.2247 37.9665 90.6875C38.7383 90.4165 38.6393 89.6223 38.6359 88.9817C38.4674 86.8839 39.0639 84.0813 38.2329 82.3187Z" fill="#CC1212"/>
<path d="M50.9486 68.7496C51.96 68.7795 51.6916 67.201 51.7357 66.3659C51.7961 65.2423 52.2284 63.32 52.1843 61.6005C52.1345 59.4646 51.5718 57.5305 50.5 59.346C50.9324 62.582 50.2594 66.1405 50.9486 68.7496Z" fill="#CC1212"/>
<path d="M39.0576 90.7169C38.7501 90.8672 38.6476 91.3377 38.7009 92.0723C39.6367 92.4206 40.9413 92.2704 42.1855 92.2704C43.3847 92.2704 44.7939 92.7409 45.4375 91.686C44.9046 90.7631 43.77 90.8011 42.7882 90.7169C41.5829 90.6228 40.2208 90.7912 39.0576 90.7169Z" fill="#CC1212"/>
<path d="M38.9075 64.0896C38.7258 64.3433 38.655 64.5548 38.7013 64.7259C38.7476 64.897 38.9602 64.9698 39.3372 64.9444C39.6781 64.9192 40.4448 65.052 41.6372 65.3428C41.8988 65.4069 42.0405 65.3753 42.0605 65.248C42.0805 65.1208 41.9506 64.9549 41.6608 64.7548C41.57 64.6908 41.451 64.6153 41.3065 64.5267C41.1621 64.438 41.0113 64.3512 40.8523 64.2634C40.6934 64.1756 40.5408 64.0879 40.3909 64.0071C40.241 63.9264 40.112 63.858 40.0075 63.8079C39.8385 63.7122 39.6418 63.6719 39.4471 63.693C39.2718 63.7167 39.0919 63.8492 38.9075 64.0896Z" fill="#CC1212"/>
<path d="M48.9217 63.7932C48.8005 63.7448 48.6681 63.7411 48.5449 63.7827C48.2424 63.853 47.9338 63.8873 47.6245 63.8851C47.1858 63.8996 46.7129 63.9031 46.2058 63.8955C45.6988 63.8879 45.2102 63.868 44.7402 63.8358C44.2708 63.8017 43.9235 63.7641 43.6983 63.723C43.4865 63.6644 43.2633 63.6786 43.0593 63.7638C42.896 63.8453 42.7134 64.0566 42.5114 64.3978C42.3985 64.5873 42.3482 64.7465 42.3612 64.8716C42.3687 64.9816 42.4158 65.0839 42.4923 65.1559C42.5727 65.2259 42.6735 65.2619 42.7762 65.2574C42.8838 65.2591 42.9891 65.2233 43.0766 65.155C43.2564 65.0439 43.4496 64.961 43.6506 64.9086C43.8572 64.8543 44.1608 64.7911 44.5613 64.7191C45.0189 64.6467 45.4804 64.6094 45.9427 64.6072C46.4102 64.5974 46.8777 64.6211 47.3423 64.6783C47.6688 64.7191 47.8902 64.8091 48.01 64.9446C48.1298 65.0801 48.201 65.3009 48.2262 65.6014C48.2466 65.8316 48.2308 66.064 48.1793 66.2884C48.0868 66.7376 47.9709 67.1805 47.832 67.6152C47.7319 67.9311 47.6349 68.2078 47.5412 68.4454C47.4465 68.6851 47.3528 68.9069 47.259 69.1088C47.1703 69.3054 47.0697 69.4954 46.9577 69.6774C46.8518 69.848 46.7354 70.0223 46.6104 70.1995C46.3598 69.9266 46.106 69.6423 45.849 69.3466C45.592 69.051 45.3506 68.7723 45.1248 68.5108C44.8991 68.2435 44.702 68.0041 44.5336 67.7924C44.3599 67.5811 44.2418 67.42 44.1663 67.311C43.841 66.8732 43.4966 66.7841 43.1331 67.0437C42.8952 67.1944 42.7728 67.3489 42.7667 67.5053C42.7606 67.6616 42.8535 67.7754 43.0393 67.8445C43.2491 67.9331 43.4523 68.0392 43.6471 68.162C43.8198 68.2772 43.986 68.4038 44.1446 68.5411C44.434 68.8153 44.7564 69.14 45.1118 69.5153C45.4672 69.8906 45.8275 70.2975 46.1928 70.7359C45.8129 71.1934 45.4016 71.6186 44.9625 72.0077C44.568 72.3542 44.1427 72.6568 43.6931 72.9109C43.2554 73.1554 42.7972 73.3534 42.3247 73.5022C41.8308 73.6574 41.329 73.7808 40.8218 73.8718C40.7538 73.881 40.6881 73.9047 40.6285 73.9416C40.5689 73.9786 40.5166 74.0279 40.4745 74.087C40.4357 74.1365 40.4072 74.1945 40.3908 74.2572C40.3745 74.3198 40.3707 74.3856 40.3799 74.4499C40.3939 74.5177 40.4214 74.5812 40.4604 74.6361C40.4994 74.691 40.549 74.7358 40.6056 74.7674C40.7367 74.8565 40.9286 74.8944 41.1786 74.8811C41.836 74.8384 42.4831 74.6823 43.0957 74.4187C43.7014 74.1657 44.2661 73.809 44.7689 73.362C45.17 73.0069 45.5335 72.6616 45.8594 72.3262C46.1853 71.9907 46.4747 71.6659 46.7276 71.3519C46.9412 71.6116 47.1409 71.8646 47.3293 72.1101C47.5177 72.3555 47.6923 72.5887 47.8555 72.8066C48.1449 73.2173 48.3955 73.5648 48.6074 73.8491C48.8192 74.1334 49.0039 74.3763 49.1613 74.5779C49.2884 74.7435 49.4235 74.9017 49.5659 75.0517C49.6601 75.1518 49.7604 75.2445 49.8663 75.3294C50.04 75.4791 50.3092 75.5303 50.6738 75.4829C50.9161 75.4463 51.1519 75.3693 51.3728 75.2545C51.4995 75.3066 51.6272 75.3559 51.7557 75.4071C51.7635 75.2858 51.7756 75.1503 51.7886 75.0091L51.8017 75.0005C52.0526 74.8233 52.1802 74.7068 52.1872 74.6518C52.1941 74.5968 52.0899 74.5153 51.8772 74.4063L51.8486 74.3921C52.03 72.5583 52.2427 69.9958 50.7355 69.8432C50.475 70.9729 50.4446 72.402 50.5219 73.6984C50.435 73.6472 50.3482 73.598 50.2701 73.5439C50.126 73.4479 49.9726 73.3386 49.8099 73.216C49.3604 72.8898 48.9274 72.5374 48.5127 72.1603C48.0497 71.7433 47.5988 71.2954 47.16 70.8165C47.396 70.4979 47.6124 70.1627 47.8077 69.8129C47.9893 69.4837 48.1494 69.1411 48.287 68.7875C48.3617 68.598 48.443 68.3768 48.531 68.1241C48.619 67.8714 48.7003 67.6218 48.775 67.3754C48.8508 67.129 48.9168 66.8997 48.9729 66.6874C49.0192 66.5231 49.0537 66.3552 49.0762 66.1851C49.11 65.993 49.1537 65.8032 49.2073 65.6165C49.2699 65.391 49.3393 65.155 49.414 64.9086C49.4641 64.7564 49.4708 64.5912 49.4331 64.4348C49.3971 64.2883 49.3329 64.152 49.2447 64.0348C49.1594 63.9234 49.0477 63.8398 48.9217 63.7932Z" fill="#CC1212"/>
<path d="M52.1367 81.1046C52.0635 81.0465 51.9802 81.0074 51.8927 80.99C51.784 80.9698 51.6721 80.9303 51.5584 80.9004C51.612 80.7338 51.6776 80.5727 51.7548 80.4188C51.7122 79.4903 51.8551 78.3413 51.6545 77.5938C50.0394 76.0662 50.2692 79.0058 50.5917 80.5209C50.5666 80.5074 50.5391 80.4997 50.5148 80.4862C49.9355 80.1652 49.3629 79.8072 48.7969 79.4123C48.231 79.0174 47.6461 78.5679 47.0422 78.0639C46.6921 77.7749 46.4097 77.5283 46.1925 77.3338C45.9752 77.1392 45.7947 76.9658 45.6502 76.8127C45.5258 76.6847 45.4107 76.5452 45.3059 76.3956C45.2218 76.2679 45.1508 76.1292 45.0945 75.9824C44.9831 75.7468 44.8503 75.6428 44.696 75.6704C44.5417 75.698 44.3729 75.934 44.1896 76.3783C44.0454 76.7128 43.7771 77.0952 43.385 77.5254C42.9461 77.9982 42.4706 78.4238 41.9645 78.7968C41.377 79.2345 40.7604 79.6181 40.1205 79.944C39.5119 80.2543 38.8797 80.499 38.2321 80.675C38.2438 79.576 38.1644 78.3634 38.2237 77.5929C38.2906 77.1036 38.8195 77.1479 38.8086 76.5757C38.7326 76.1751 38.4159 75.7503 38.2429 75.3082C38.1977 75.2665 38.1453 75.2363 38.0892 75.2196C38.0641 75.2254 38.0499 74.9489 38.0432 74.5271C38.0524 74.5396 38.06 74.556 38.0692 74.5666C38.1962 74.713 38.3803 74.668 38.6215 74.4317C38.8019 74.2506 38.9858 74.077 39.1729 73.9106C39.3601 73.7443 39.5551 73.5706 39.7578 73.3896C39.9617 73.2085 40.1915 73.0043 40.4447 72.7847C40.6978 72.5651 40.9811 72.3031 41.2944 72.0142C41.3613 71.9535 41.4141 71.8748 41.4482 71.7849C41.4762 71.7169 41.4856 71.6406 41.4749 71.5663C41.4703 71.537 41.4597 71.5094 41.4441 71.4858C41.4284 71.4621 41.408 71.4432 41.3847 71.4305C41.3552 71.4171 41.3234 71.412 41.2919 71.4155C41.2604 71.419 41.23 71.4311 41.2033 71.4507C40.8541 71.66 40.5137 71.8527 40.1823 72.0286C39.8508 72.2045 39.5885 72.34 39.3952 72.4351C39.2536 72.5079 39.1089 72.5722 38.9615 72.6277C38.7647 72.688 38.5653 72.7365 38.3641 72.7731C38.2429 72.804 38.1307 72.8704 38.0382 72.9658C38.0491 71.391 38.0859 69.5735 38.0859 69.5735L38.1126 68.7644C38.3541 68.7586 38.6499 68.7644 39.0066 68.7798C39.447 68.801 39.8832 68.8251 40.3176 68.853C40.5683 68.8809 40.707 68.8183 40.7246 68.6604C40.7421 68.5024 40.641 68.3714 40.4087 68.2433C40.1664 68.1181 39.8957 67.9939 39.594 67.8686C39.2924 67.7434 38.9858 67.6182 38.6749 67.493C38.5108 67.42 38.3323 67.401 38.1594 67.4381L38.2597 64.486C38.1811 64.0236 37.9839 63.701 37.5361 63.6875C37.3171 64.458 37.4985 65.6774 37.4358 66.6281C37.3932 66.9912 37.0648 67.0297 37.0456 67.4198V78.8402C37.0456 79.7639 36.8417 80.9909 37.2963 81.669V81.6777C37.3208 81.7476 37.3594 81.8098 37.409 81.8591C37.4585 81.9083 37.5176 81.9432 37.5812 81.9609C37.6012 81.9734 37.6138 81.9936 37.6347 82.0052C37.6455 81.9994 37.6505 81.9859 37.6606 81.9782C37.9112 82.0283 38.2655 81.9657 38.7468 81.7856C39.1121 81.6586 39.471 81.5087 39.8222 81.3367C40.2214 81.1379 40.6083 80.9078 40.9802 80.6481C41.3947 80.363 41.8554 80.0043 42.3623 79.5722C42.8692 79.14 43.4599 78.5981 44.1345 77.9463C44.279 77.8067 44.4027 77.693 44.5046 77.6015C44.5891 77.5217 44.6883 77.465 44.7946 77.4359C44.894 77.4157 44.9962 77.4226 45.0929 77.4561C45.2371 77.5074 45.3769 77.5738 45.5107 77.6545C45.5708 77.6956 45.7379 77.8276 46.012 78.0504C46.2861 78.2732 46.6005 78.547 46.9553 78.872C47.3169 79.1982 47.6968 79.5455 48.095 79.9141C48.4933 80.2827 48.8554 80.6265 49.1813 80.9457C49.4704 81.2385 49.7144 81.4712 49.9132 81.644C50.0626 81.7795 50.2252 81.8942 50.3979 81.9859C50.5115 85.3445 50.1572 83.3218 50.5483 86.8625L50.1213 86.8249C49.5542 86.7703 49.0417 86.7254 48.5838 86.6901C48.126 86.6547 47.704 86.6268 47.318 86.6063C46.9319 86.5851 46.5671 86.5713 46.2234 86.5648C45.8808 86.5571 45.5341 86.5648 45.184 86.5754V85.5034C45.184 85.1072 45.1901 84.6937 45.2023 84.2629C45.6451 84.2348 46.0889 84.2348 46.5317 84.2629C46.8558 84.2833 47.1785 84.3251 47.4985 84.3881C47.7759 84.4574 47.9756 84.4603 48.0959 84.3987C48.2366 84.3127 48.3503 84.178 48.4209 84.0134C48.6265 83.6108 48.5713 83.4297 48.2588 83.4711C48.1619 83.4856 48.0324 83.5 47.8694 83.5135C47.7402 83.5272 47.6101 83.5272 47.4809 83.5135C47.3355 83.5135 47.1667 83.5135 46.9746 83.5029C46.7824 83.4923 46.5793 83.4923 46.3688 83.4923C46.1582 83.4923 45.951 83.4923 45.7446 83.5029C45.5382 83.5135 45.3586 83.5135 45.2023 83.5135C45.2023 83.1282 45.2023 82.7497 45.2115 82.3875C45.2207 82.0254 45.2257 81.6998 45.2383 81.408C45.8048 81.408 46.2298 81.4218 46.5133 81.4494C46.7539 81.47 46.9927 81.5119 47.2277 81.5746C47.65 81.6998 47.9213 81.6356 48.0416 81.382C48.153 81.1592 48.1892 80.9986 48.1502 80.9004C48.1134 80.8041 47.9831 80.7203 47.7516 80.65C47.6313 80.623 47.4834 80.598 47.3088 80.5777C47.1342 80.5575 46.896 80.546 46.5944 80.546C46.2927 80.546 45.9167 80.5537 45.4647 80.5671C45.0127 80.5806 44.442 80.6086 43.7551 80.65C43.5621 80.6644 43.405 80.6712 43.2847 80.6712H42.9772C42.8937 80.6712 42.8168 80.6712 42.7508 80.6606C42.6799 80.6526 42.6101 80.6351 42.5427 80.6086C42.379 80.567 42.2093 80.567 42.0456 80.6086C41.8639 80.6481 41.6875 80.7148 41.5209 80.807C41.3724 80.8857 41.2376 80.9951 41.1231 81.1296C41.077 81.1746 41.043 81.2339 41.0254 81.3006C41.0078 81.3672 41.0072 81.4383 41.0237 81.5053C41.0839 81.7281 41.1922 81.8565 41.3487 81.8906C41.5058 81.9262 41.7473 81.8906 42.0723 81.7769C42.2394 81.721 42.4024 81.6722 42.5611 81.6305C42.7199 81.5888 42.8825 81.5541 43.0491 81.5265C43.2162 81.4982 43.397 81.4773 43.5914 81.4639C43.7858 81.4504 44.0086 81.4363 44.2598 81.4215C44.2715 81.7422 44.2807 82.0822 44.2874 82.4434C44.2941 82.8046 44.3024 83.1802 44.3141 83.5694C43.7014 83.5976 43.2463 83.6079 42.9488 83.6002C42.746 83.6024 42.5434 83.585 42.343 83.5482C42.1529 83.4792 41.9476 83.4905 41.764 83.58C41.5224 83.7022 41.3111 83.8918 41.149 84.1319C41.0668 84.231 41.0024 84.3479 40.9594 84.4757C40.9426 84.515 40.9371 84.5594 40.9437 84.6026C40.9503 84.6457 40.9687 84.6853 40.9961 84.7155C41.0496 84.7714 41.1557 84.7993 41.312 84.7993C41.5394 84.7845 41.7641 84.7353 41.9804 84.6529C42.2233 84.5874 42.5341 84.5226 42.9129 84.4584C43.2917 84.3942 43.7652 84.3422 44.3334 84.3023C44.345 84.7756 44.3512 85.2032 44.3517 85.5853V86.6169C43.8933 86.6451 43.3897 86.6901 42.841 86.7517L40.9326 86.9713C40.6792 86.9989 40.4502 87.023 40.2458 87.0435C40.0411 87.0647 39.9116 87.0753 39.8481 87.0753C39.6809 87.0888 39.5439 87.1071 39.4411 87.1273C39.3491 87.1443 39.2604 87.1795 39.1788 87.2314C39.103 87.2837 39.0357 87.3509 38.9799 87.4298C38.9066 87.5351 38.8401 87.6464 38.781 87.763C38.7417 87.8274 38.7156 87.9013 38.7046 87.979C38.6936 88.0568 38.698 88.1364 38.7175 88.2119C38.7394 88.2776 38.773 88.3373 38.8162 88.3871C38.8594 88.4369 38.9112 88.4756 38.9682 88.5008C39.1179 88.5671 39.279 88.5922 39.4386 88.574C39.6442 88.5534 39.8436 88.4825 40.0235 88.366C40.2934 88.2277 40.5729 88.1159 40.8591 88.0318C41.2451 87.9078 41.6671 87.79 42.125 87.6783C42.5829 87.5665 43.0499 87.4728 43.5262 87.397C44.003 87.3206 44.4161 87.275 44.7653 87.2603C45.17 87.2477 45.5749 87.269 45.9769 87.3238C46.3991 87.3784 46.8091 87.4513 47.2068 87.5425C47.5791 87.6255 47.9475 87.73 48.3106 87.8555C48.5972 87.9508 48.8766 88.0726 49.1462 88.2196C49.4954 88.4289 49.7848 88.5159 50.0143 88.4806C50.1577 88.4489 50.2922 88.3775 50.4062 88.2726C50.4563 88.549 50.6059 88.7108 50.6786 88.966C50.2608 89.647 50.595 91.2025 49.7963 91.4501C49.1144 91.4106 48.2705 91.5541 47.7366 91.3393C47.8034 90.9222 47.9179 90.5688 47.6413 90.3232H46.9545C46.8501 91.1804 46.2543 91.4722 46.1682 92.3564C47.6413 92.2851 49.3676 92.5047 50.6803 92.2408C51.063 91.7207 51.2919 91.4924 51.4197 91.4038C51.3028 91.295 51.1574 90.875 51.1691 89.5738C51.1791 88.9853 51.4122 88.4584 51.4649 87.8805C51.6637 85.7693 51.1799 83.6426 51.3521 81.9262C51.5442 81.8326 51.729 81.7202 51.9044 81.59C52.0094 81.5178 52.0988 81.419 52.1659 81.3011C52.1841 81.2704 52.1912 81.2327 52.1857 81.196C52.1803 81.1594 52.1627 81.1266 52.1367 81.1046Z" fill="#CC1212"/>
<path d="M69.5697 62L69.7061 67.9087H69.1968C68.9574 66.4276 68.3675 65.2362 67.4272 64.3344C66.4869 63.4326 65.4703 62.9815 64.3775 62.9808C63.5332 62.9808 62.8648 63.2184 62.3722 63.6935C61.8796 64.1686 61.6333 64.7159 61.6333 65.3352C61.6268 65.7024 61.7164 66.0644 61.8923 66.3815C62.1323 66.7918 62.5172 67.1972 63.0473 67.5978C63.4363 67.8857 64.3346 68.3956 65.7422 69.1277C67.7126 70.1483 69.0417 71.1118 69.7294 72.0184C70.4013 72.9014 70.7618 74.0023 70.7497 75.1337C70.7497 76.6172 70.201 77.8926 69.1036 78.9598C68.0061 80.027 66.6132 80.5612 64.9247 80.5624C64.4193 80.565 63.9153 80.5079 63.4219 80.3924C62.8141 80.2321 62.22 80.0193 61.6454 79.7561C61.2483 79.5816 60.9215 79.4943 60.6648 79.4943C60.4169 79.5061 60.1783 79.5974 59.9811 79.7561C59.7195 79.959 59.5173 80.2353 59.3976 80.5533H58.9375V73.8492H59.3976C59.7636 75.7358 60.4645 77.1723 61.5004 78.1589C62.5362 79.1455 63.6584 79.6407 64.8669 79.6443C65.794 79.6443 66.5329 79.3783 67.0836 78.8462C67.6344 78.3141 67.9097 77.695 67.9097 76.989C67.9065 76.56 67.7958 76.1395 67.5886 75.77C67.3403 75.3346 67.0133 74.9547 66.6261 74.6519C66.1951 74.2992 65.4332 73.8395 64.3403 73.2729C62.809 72.479 61.7078 71.803 61.0368 71.2448C60.4072 70.7372 59.8813 70.1009 59.4908 69.3741C59.1289 68.6777 58.9429 67.8952 58.9504 67.1015C58.9504 65.6888 59.4431 64.4856 60.4283 63.4917C61.4135 62.4978 62.6556 62.0009 64.1548 62.0009C64.6908 61.9992 65.2248 62.0695 65.7439 62.21C66.2348 62.3553 66.7112 62.5501 67.1665 62.7918C67.7253 63.0754 68.1163 63.2172 68.3396 63.2172C68.4338 63.2225 68.528 63.2065 68.6158 63.1703C68.7037 63.134 68.7832 63.0784 68.8489 63.0072C68.9732 62.8678 69.0883 62.5324 69.1942 62.0009L69.5697 62Z" fill="black"/>
<path d="M79.1862 80.0563V80.5625H72.4375V80.0563H72.8662C73.2407 80.0563 73.5422 79.9611 73.7707 79.7708C73.9475 79.623 74.0822 79.3902 74.1511 79.1133C74.2213 78.8945 74.2563 78.3194 74.2563 77.3882V65.1743C74.2563 64.2228 74.2213 63.6293 74.1511 63.394C74.081 63.1586 73.9399 62.9509 73.7277 62.7707C73.5155 62.5938 73.2288 62.5049 72.8676 62.5043H72.4388V62H79.1875V62.5043H78.7588C78.3843 62.5043 78.083 62.5995 77.855 62.7898C77.6769 62.9392 77.5393 63.1709 77.4646 63.4473C77.3945 63.6661 77.3594 64.2412 77.3594 65.1724V77.3863C77.3594 78.3378 77.396 78.9313 77.4692 79.1666C77.5425 79.4019 77.6851 79.6094 77.8973 79.7889C78.1104 79.9672 78.3971 80.0563 78.7574 80.0563H79.1862Z" fill="black"/>
<path d="M86.664 62L94.7175 73.2562V65.4513C94.7175 64.3629 94.5781 63.6267 94.2992 63.2428C93.9116 62.7244 93.2644 62.4744 92.3576 62.493V62H97.75V62.493C97.0601 62.5916 96.5969 62.7188 96.3605 62.8744C96.1056 63.0542 95.9109 63.3223 95.8067 63.6373C95.6739 63.9895 95.6076 64.5942 95.6076 65.4513V80.5625H95.1968L84.1602 65.4513V76.9866C84.1602 78.0309 84.3749 78.7361 84.8043 79.102C85.2259 79.4652 85.7459 79.6587 86.2792 79.6508H86.664V80.1457H80.875V79.6508C81.7735 79.6415 82.3992 79.4363 82.7522 79.035C83.1053 78.6338 83.2821 77.9516 83.2826 76.9884V64.1796L82.9329 63.6977C82.5872 63.2159 82.2821 62.898 82.0177 62.7442C81.7534 62.5904 81.3725 62.5067 80.875 62.493V62H86.664Z" fill="black"/>
<path d="M108.602 62.0089C111.386 61.9038 113.649 62.735 115.389 64.5026C117.13 66.2702 118 68.483 118 71.1408C118 73.411 117.351 75.4082 116.053 77.1324C114.335 79.4198 111.907 80.5631 108.77 80.5625C105.633 80.5619 103.201 79.4711 101.474 77.2902C100.116 75.566 99.4369 73.5205 99.4375 71.1536C99.4375 68.4976 100.321 66.2831 102.087 64.5099C103.853 62.7368 106.025 61.9032 108.602 62.0089ZM108.76 62.8536C107.161 62.8536 105.945 63.6894 105.111 65.361C104.432 66.7331 104.093 68.7037 104.093 71.2729C104.093 74.3263 104.617 76.5828 105.665 78.0422C106.395 79.0627 107.418 79.5729 108.734 79.5729C109.619 79.5729 110.358 79.3531 110.951 78.9135C111.706 78.3504 112.295 77.4507 112.717 76.2144C113.138 74.9781 113.349 73.3661 113.348 71.3783C113.348 69.0121 113.133 67.2418 112.703 66.0672C112.273 64.8927 111.725 64.0636 111.058 63.58C110.386 63.0945 109.581 62.8401 108.76 62.8536Z" fill="black"/>
<path d="M63.2931 83.9375L63.4218 85.4658H63.2931C63.1635 85.0853 62.9959 84.7973 62.7902 84.6043C62.6377 84.4645 62.4582 84.3556 62.262 84.2839C62.0658 84.2122 61.8568 84.1792 61.6474 84.1868C61.013 84.1868 60.5297 84.4308 60.1974 84.9188C59.9127 85.3589 59.7683 85.871 59.7823 86.3907C59.7753 86.8264 59.8682 87.2582 60.0542 87.6547C60.2048 87.9978 60.4572 88.2895 60.7792 88.4924C61.0531 88.6621 61.3706 88.7537 61.6954 88.7567C61.8754 88.7575 62.0546 88.7347 62.2283 88.6889C62.4019 88.6431 62.5688 88.5759 62.7249 88.4889V87.0884C62.7249 86.8464 62.7059 86.6876 62.6678 86.6118C62.6302 86.5373 62.568 86.4771 62.4911 86.4409C62.3568 86.3925 62.2135 86.3723 62.0706 86.3819V86.2463H64V86.3819H63.9094C63.7191 86.3819 63.5877 86.4436 63.517 86.5669C63.4671 86.655 63.4436 86.8311 63.4436 87.0884V88.5708C63.1798 88.7116 62.8996 88.8211 62.6089 88.8967C62.3095 88.9684 62.0019 89.003 61.6936 88.9998C60.7312 88.9998 60.0001 88.6997 59.5005 88.0996C59.1295 87.6614 58.9301 87.1097 58.9377 86.5422C58.9436 86.0801 59.0701 85.627 59.3053 85.2254C59.5406 84.8238 59.8768 84.4867 60.2826 84.2458C60.8315 83.9661 61.461 83.8731 62.0706 83.9816C62.285 84.0298 62.4955 84.0931 62.7004 84.171C62.7872 84.2077 62.8786 84.2329 62.9723 84.2458C62.996 84.2456 63.0192 84.2397 63.04 84.2288C63.0608 84.2179 63.0787 84.2023 63.0919 84.1833C63.1347 84.1085 63.1557 84.0239 63.1527 83.9384L63.2931 83.9375Z" fill="black"/>
<path d="M68.9202 87.6004L69.0625 87.6262L68.5598 89H64V88.8619H64.2203C64.4699 88.8619 64.6482 88.7922 64.7552 88.6529C64.8158 88.5737 64.8461 88.3895 64.8461 88.1004V84.8334C64.8461 84.5179 64.8058 84.3199 64.7252 84.2395C64.66 84.1824 64.5812 84.1382 64.4942 84.1099C64.4073 84.0816 64.3142 84.0699 64.2214 84.0756H64V83.9375H66.6623V84.0756C66.35 84.0756 66.1275 84.0977 66.0055 84.1502C65.8961 84.1893 65.8053 84.259 65.7478 84.3482C65.7021 84.4274 65.6789 84.6177 65.6782 84.9191V88.1004C65.6665 88.2448 65.6902 88.3898 65.7478 88.5258C65.7837 88.5795 65.8405 88.6206 65.9082 88.6418C65.9795 88.6664 66.2048 88.6786 66.5842 88.6786H67.012C67.4627 88.6786 67.7793 88.6501 67.9619 88.593C68.1549 88.5291 68.3262 88.4246 68.4603 88.2892C68.6549 88.0819 68.8101 87.8495 68.9202 87.6004Z" fill="black"/>
<path d="M71.644 83.9379C71.9719 83.9364 72.2964 83.9993 72.5966 84.1226C72.8968 84.2459 73.1661 84.4268 73.387 84.6536C73.879 85.1314 74.125 85.7271 74.125 86.4408C74.125 87.1763 73.8771 87.7867 73.3814 88.2721C73.1506 88.5005 72.8728 88.6828 72.5647 88.8079C72.2566 88.933 71.9246 88.9983 71.5888 89C71.253 89.0016 70.9204 88.9395 70.6109 88.8174C70.3014 88.6954 70.0216 88.5158 69.7883 88.2897C69.3044 87.8154 69.0625 87.2027 69.0625 86.4514C69.0625 85.6819 69.342 85.0548 69.9011 84.57C70.3715 84.1541 70.9972 83.9272 71.644 83.9379ZM71.5717 84.202C71.3589 84.1953 71.1473 84.2353 70.954 84.319C70.7607 84.4026 70.591 84.5275 70.4586 84.6836C70.1107 85.0833 69.9368 85.6702 69.9368 86.4444C69.9368 87.2338 70.117 87.8419 70.4774 88.2686C70.6067 88.4247 70.7735 88.55 70.9643 88.6343C71.1552 88.7186 71.3645 88.7595 71.5754 88.7537C71.8057 88.7581 72.034 88.7127 72.2425 88.6211C72.4511 88.5295 72.6342 88.3941 72.7778 88.2254C73.095 87.8733 73.2532 87.3139 73.2526 86.5474C73.2526 85.7186 73.0787 85.1023 72.7308 84.6985C72.4469 84.3605 72.0652 84.1993 71.5717 84.1993V84.202Z" fill="black"/>
<path d="M76.6478 86.4167C76.9075 86.491 77.1019 86.6106 77.2311 86.7757C77.3175 86.8819 77.3862 87.0117 77.4325 87.1565C77.4789 87.3012 77.5018 87.4577 77.4999 87.6154C77.4976 87.8752 77.4357 88.1278 77.3225 88.3381C77.2031 88.5697 77.0334 88.7456 76.8368 88.8417C76.6317 88.9472 76.3178 89 75.8953 89H74.125V88.8619H74.2662C74.4227 88.8619 74.535 88.7947 74.6032 88.6603C74.6462 88.5737 74.6674 88.3841 74.6674 88.1079V84.8341C74.6674 84.5202 74.6407 84.3232 74.5869 84.2403C74.5455 84.183 74.4954 84.1387 74.44 84.1104C74.3846 84.082 74.3253 84.0705 74.2662 84.0764H74.125V83.9383H75.7459C75.9901 83.9319 76.2341 83.9628 76.4732 84.0304C76.7165 84.0944 76.9384 84.2611 77.1069 84.5064C77.2492 84.723 77.327 85.0031 77.3252 85.2926C77.3269 85.5393 77.2666 85.7795 77.154 85.9739C77.0227 86.1878 76.8461 86.3423 76.6478 86.4167ZM75.1981 86.216C75.2663 86.2326 75.3441 86.2455 75.4321 86.2547C75.5201 86.2639 75.6156 86.2675 75.7214 86.2675C75.9902 86.2675 76.1928 86.228 76.3279 86.1506C76.4579 86.078 76.5672 85.9508 76.6396 85.7879C76.711 85.6282 76.7483 85.445 76.7474 85.2585C76.7478 85.1131 76.7239 84.9693 76.6773 84.8381C76.6308 84.7069 76.5628 84.5916 76.4786 84.5008C76.2999 84.2909 76.039 84.186 75.6961 84.186C75.5281 84.1832 75.3606 84.2111 75.1981 84.2688V86.216ZM75.1981 88.6345C75.4058 88.7006 75.6185 88.7342 75.8319 88.7349C76.1657 88.7349 76.4202 88.6336 76.5953 88.431C76.6783 88.3405 76.745 88.2258 76.7905 88.0956C76.836 87.9653 76.859 87.8229 76.8579 87.6789C76.8571 87.4788 76.8161 87.2828 76.7392 87.1118C76.6475 86.9162 76.5117 86.7655 76.3517 86.6818C76.1406 86.5697 75.9148 86.5165 75.6879 86.5253C75.5733 86.5253 75.4758 86.5253 75.3946 86.5327C75.3288 86.536 75.2632 86.5446 75.1981 86.5585V88.6345Z" fill="black"/>
<path d="M80.7397 87.3383H78.8925L78.5689 88.1196C78.5023 88.2557 78.4605 88.4035 78.4457 88.5553C78.4469 88.5946 78.4569 88.6331 78.475 88.6676C78.4931 88.7021 78.5187 88.7318 78.5498 88.7543C78.6192 88.8107 78.7687 88.8476 78.9984 88.865V89H77.5V88.865C77.6984 88.829 77.8274 88.7816 77.887 88.7227C78.0061 88.6057 78.1386 88.3684 78.2843 88.0107L79.9623 83.9375H80.0855L81.7426 88.0503C81.8762 88.3816 81.9977 88.5958 82.107 88.6948C82.2367 88.8014 82.3971 88.8597 82.5625 88.8605V88.9955H80.6798V88.8605C80.8698 88.8515 80.9982 88.8182 81.065 88.7624C81.096 88.7386 81.1213 88.7077 81.1388 88.6721C81.1562 88.6365 81.1654 88.5971 81.1656 88.5571C81.1476 88.381 81.1001 88.2095 81.0251 88.0503L80.7397 87.3383ZM80.6416 87.0683L79.8339 85.0681L79.0036 87.0692L80.6416 87.0683Z" fill="black"/>
<path d="M85.8418 87.6004L85.9375 87.6262L85.6019 89H82.5625V88.8619H82.7103C82.876 88.8619 82.996 88.7919 83.0674 88.6529C83.1074 88.5737 83.1281 88.3895 83.1281 88.1004V84.8334C83.1281 84.5179 83.101 84.3199 83.0467 84.2395C83.0034 84.1822 82.951 84.1379 82.893 84.1095C82.835 84.0812 82.7729 84.0696 82.711 84.0756H82.5632V83.9375H84.3421V84.0756C84.1336 84.0756 83.9874 84.1005 83.9036 84.1502C83.8304 84.1893 83.7696 84.259 83.7308 84.3482C83.7004 84.4274 83.6849 84.6177 83.6844 84.9191V88.1004C83.6766 88.2448 83.6924 88.3898 83.7308 88.5258C83.7552 88.5791 83.793 88.6201 83.8379 88.6418C83.8856 88.6664 84.0362 88.6786 84.29 88.6786H84.5756C84.877 88.6786 85.0884 88.6501 85.2098 88.593C85.3389 88.5291 85.4535 88.4247 85.5433 88.2892C85.6702 88.0812 85.7709 87.8487 85.8418 87.6004Z" fill="black"/>
<path d="M92.4267 83.9376L92.5546 85.5837H92.4267C92.2549 85.0908 92.0102 84.736 91.6925 84.5194C91.3662 84.3005 90.9618 84.1857 90.5483 84.1946C90.172 84.1861 89.8022 84.2807 89.4925 84.4649C89.1828 84.6491 88.9491 84.9133 88.8252 85.2193C88.6387 85.6441 88.5508 86.0963 88.5665 86.5503C88.556 86.9404 88.6392 87.3282 88.8109 87.6894C88.9602 87.996 89.2178 88.2544 89.5471 88.428C89.8867 88.6027 90.2765 88.6918 90.672 88.685C91.009 88.6911 91.342 88.6216 91.6383 88.4834C91.9172 88.3484 92.2239 88.0811 92.5587 87.6815L92.6875 87.7537C92.4053 88.1838 92.0763 88.499 91.7007 88.6991C91.2959 88.9057 90.8316 89.0098 90.3611 88.9993C89.4306 88.9993 88.7093 88.7017 88.1973 88.1067C87.8124 87.6538 87.6115 87.1043 87.6257 86.5432C87.6203 86.0795 87.7497 85.622 88.002 85.2122C88.2387 84.8209 88.5988 84.4951 89.041 84.2721C89.4785 84.05 89.9779 83.9343 90.4859 83.9376C90.9047 83.9405 91.3167 84.0286 91.6884 84.1946C91.7643 84.2349 91.8488 84.2616 91.9369 84.273C91.9731 84.2734 92.009 84.2676 92.0425 84.256C92.076 84.2444 92.1066 84.2271 92.1322 84.2052C92.2099 84.1306 92.2629 84.0394 92.2856 83.9411L92.4267 83.9376Z" fill="black"/>
<path d="M95.9258 87.3428H94.0799L93.7565 88.1241C93.6917 88.2591 93.6511 88.4052 93.6369 88.5553C93.6381 88.5946 93.6481 88.6331 93.6662 88.6676C93.6842 88.7021 93.7098 88.7318 93.7409 88.7543C93.8094 88.811 93.9594 88.8443 94.1883 88.865V89H92.6875V88.865C92.8869 88.829 93.0152 88.7813 93.0742 88.7227C93.1938 88.6057 93.3262 88.3684 93.4713 88.0107L95.1481 83.9375H95.2712L96.9307 88.0548C97.0642 88.3861 97.1856 88.6003 97.2948 88.6993C97.4244 88.8059 97.5847 88.8642 97.75 88.865V89H95.8686V88.865C96.0593 88.856 96.1876 88.8227 96.2544 88.7669C96.2853 88.7431 96.3104 88.7122 96.3277 88.6765C96.345 88.6409 96.3541 88.6015 96.3541 88.5616C96.3361 88.3855 96.2886 88.214 96.2137 88.0548L95.9258 87.3428ZM95.827 87.0728L95.018 85.0717L94.1883 87.0728H95.827Z" fill="black"/>
<path d="M99.01 86.6309V88.1041C99.01 88.4227 99.0406 88.6207 99.1018 88.698C99.1498 88.7554 99.2084 88.7999 99.2732 88.8282C99.3381 88.8566 99.4077 88.8681 99.477 88.8619H99.6468V89H97.75V88.8619H97.9167C98.1034 88.8619 98.2387 88.7919 98.3192 88.6529C98.3635 88.5755 98.3852 88.3932 98.3852 88.1004V84.8355C98.3852 84.5169 98.3557 84.319 98.2967 84.2416C98.2479 84.1843 98.1888 84.14 98.1234 84.1116C98.058 84.0833 97.988 84.0718 97.9183 84.0777H97.7516V83.9396H99.3739C99.6909 83.9266 100.008 83.9739 100.311 84.0796C100.539 84.1721 100.739 84.3358 100.889 84.5519C101.046 84.7746 101.129 85.0533 101.124 85.3391C101.13 85.5268 101.101 85.7137 101.039 85.8875C100.977 86.0614 100.883 86.2181 100.764 86.3473C100.527 86.607 100.19 86.7365 99.7539 86.7359C99.6385 86.7349 99.5231 86.7263 99.4085 86.7101C99.2845 86.6926 99.1541 86.6668 99.01 86.6309ZM99.01 86.4182C99.1251 86.4431 99.2274 86.4615 99.3168 86.4744C99.3926 86.4859 99.4689 86.4921 99.5454 86.4928C99.6562 86.4936 99.7658 86.4672 99.8669 86.4154C99.968 86.3636 100.058 86.2877 100.132 86.1927C100.3 85.9802 100.388 85.7009 100.378 85.4146C100.38 85.2036 100.34 84.9948 100.26 84.8042C100.191 84.6269 100.074 84.4793 99.927 84.3825C99.7777 84.2868 99.6087 84.2381 99.4375 84.2416C99.2932 84.2471 99.1498 84.2709 99.01 84.3125V86.4182Z" fill="black"/>
<path d="M104.5 88.8619V89H102.812V88.8619H102.956C103.118 88.8619 103.237 88.8006 103.314 88.6778C103.361 88.5987 103.385 88.4072 103.385 88.1035V84.8349C103.393 84.6641 103.38 84.4927 103.347 84.3269C103.323 84.2579 103.281 84.2017 103.228 84.1676C103.147 84.1077 103.055 84.076 102.961 84.0756H102.818V83.9375H104.5V84.0756H104.357C104.291 84.0684 104.225 84.0814 104.164 84.1134C104.103 84.1454 104.048 84.1955 104.005 84.2597C103.957 84.3388 103.934 84.5358 103.934 84.834V88.1035C103.926 88.2743 103.939 88.4457 103.972 88.6116C103.997 88.6814 104.04 88.7379 104.094 88.7717C104.174 88.8316 104.265 88.8634 104.358 88.8638L104.5 88.8619Z" fill="black"/>
<path d="M109.496 83.9375L109.563 85.1248H109.392C109.378 84.9705 109.333 84.8192 109.259 84.6772C109.178 84.5422 109.05 84.4308 108.892 84.3575C108.704 84.2827 108.497 84.2473 108.288 84.2544H107.438V88.1231C107.438 88.4338 107.478 88.6279 107.558 88.7052C107.626 88.7611 107.709 88.804 107.799 88.8311C107.889 88.8581 107.984 88.8686 108.08 88.8618H108.288V89H105.727V88.8618H105.947C106.201 88.8618 106.383 88.797 106.49 88.6675C106.555 88.5883 106.588 88.4068 106.588 88.1231V84.2544H105.862C105.66 84.2461 105.457 84.2641 105.261 84.3078C105.098 84.3608 104.959 84.456 104.865 84.5795C104.744 84.7439 104.676 84.9319 104.669 85.1248H104.5L104.57 83.9375H109.496Z" fill="black"/>
<path d="M111.113 87.3428H109.267L108.944 88.1241C108.879 88.2591 108.839 88.4052 108.824 88.5553C108.826 88.5946 108.836 88.6331 108.854 88.6676C108.872 88.7021 108.897 88.7318 108.928 88.7543C108.997 88.811 109.147 88.8443 109.376 88.865V89H107.875V88.865C108.074 88.829 108.203 88.7816 108.262 88.7227C108.381 88.6057 108.514 88.3684 108.659 88.0107L110.336 83.9375H110.459L112.118 88.0548C112.252 88.3861 112.373 88.6003 112.482 88.6993C112.612 88.8059 112.772 88.8642 112.938 88.865V89H111.057V88.865C111.247 88.856 111.375 88.8227 111.442 88.7669C111.473 88.7426 111.497 88.7113 111.514 88.6753C111.531 88.6394 111.54 88.5998 111.539 88.5598C111.521 88.3837 111.473 88.2122 111.399 88.053L111.113 87.3428ZM111.014 87.0728L110.206 85.0717L109.376 87.0728H111.014Z" fill="black"/>
<path d="M117.858 87.5984L118 87.6269L117.496 89H112.938V88.862H113.158C113.408 88.862 113.587 88.7923 113.694 88.6531C113.755 88.5739 113.786 88.3898 113.786 88.1009V84.8329C113.786 84.5173 113.744 84.3194 113.664 84.2394C113.598 84.1823 113.519 84.1381 113.432 84.1098C113.345 84.0815 113.252 84.0698 113.159 84.0755H112.939V83.9375H115.604V84.0755C115.293 84.0755 115.074 84.1004 114.947 84.1501C114.838 84.1897 114.747 84.2593 114.689 84.3479C114.642 84.4271 114.619 84.6173 114.619 84.9185V88.0981C114.607 88.2425 114.631 88.3873 114.689 88.5233C114.725 88.577 114.781 88.6181 114.849 88.6392C114.921 88.6638 115.146 88.6761 115.526 88.6761H115.954C116.405 88.6761 116.723 88.6475 116.905 88.5905C117.099 88.5266 117.27 88.4222 117.405 88.2868C117.597 88.0794 117.75 87.8471 117.858 87.5984Z" fill="black"/>
</g>
<defs>
<clipPath id="clip0_505_566">
<rect width="81" height="81" fill="white" transform="translate(37 35)"/>
</clipPath>
</defs>
</svg>
