<svg width="154" height="150" viewBox="0 0 154 150" fill="none" xmlns="http://www.w3.org/2000/svg">
<rect width="154" height="150" rx="16" fill="white"/>
<g clip-path="url(#clip0_505_568)">
<path d="M117.459 76.6444C117.459 78.6285 116.305 79.5268 114.965 79.5268C113.706 79.5268 112.994 78.8208 112.994 76.4979V71.714H109.804V77.9977C109.804 80.822 111.041 82.4895 113.661 82.4895C115.128 82.4895 116.428 81.821 117.476 80.9014L117.643 82.2808H120.618V71.714H117.454L117.459 76.6444ZM48.2029 70.3215C47.9709 70.3215 47.7485 70.4133 47.5844 70.5768C47.4204 70.7403 47.3282 70.962 47.3282 71.1933C47.3282 71.4245 47.4204 71.6462 47.5844 71.8097C47.7485 71.9732 47.9709 72.065 48.2029 72.065C48.4348 72.065 48.6571 71.9732 48.8211 71.8098C48.9851 71.6464 49.0772 71.4248 49.0772 71.1937C49.0772 70.9626 48.9851 70.7409 48.8211 70.5775C48.6571 70.4141 48.4348 70.3223 48.2029 70.3223V70.3215ZM39.4661 57.5906C37.1722 57.5907 34.9008 58.0412 32.7816 58.9163C30.6623 59.7914 28.7368 61.074 27.1149 62.6907C25.4929 64.3075 24.2064 66.2269 23.3287 68.3392C22.451 70.4516 21.9994 72.7156 21.9995 75.0019C21.9997 77.2882 22.4517 79.5521 23.3296 81.6644C24.2076 83.7766 25.4944 85.6958 27.1166 87.3123C28.7387 88.9289 30.6645 90.2112 32.7838 91.086C34.9032 91.9608 37.1747 92.4109 39.4686 92.4108C44.1012 92.4104 48.544 90.5759 51.8196 87.3107C55.0951 84.0455 56.9351 79.6172 56.9348 74.9998C56.9344 70.3825 55.0938 65.9544 51.8178 62.6897C48.5418 59.425 44.0988 57.5911 39.4661 57.5914V57.5906ZM47.4107 82.2833C46.3932 83.4037 45.1524 84.3004 43.7677 84.9162C42.383 85.5319 40.8847 85.8532 39.3684 85.8596H39.3479C37.8178 85.8575 36.3052 85.5346 34.9083 84.912C33.5115 84.2894 32.2616 83.381 31.2399 82.2457C30.209 81.111 29.4329 79.7701 28.9633 78.3126C28.4938 76.8552 28.3416 75.3146 28.517 73.7938C28.797 71.3595 29.8919 69.0901 31.625 67.3522C33.3581 65.6143 35.6282 64.5092 38.069 64.2154C38.4917 64.1663 38.9178 64.1418 39.3438 64.1418C41.7462 64.137 44.0813 64.9324 45.9783 66.4016C46.0694 66.4708 46.1347 66.5684 46.1637 66.6789C46.1927 66.7893 46.1838 66.9063 46.1384 67.0111C46.1086 67.0811 46.0638 67.1437 46.007 67.1944L44.8504 68.2269C44.7288 68.335 44.5716 68.3947 44.4087 68.3947C44.2692 68.3946 44.1331 68.3517 44.0188 68.2719C42.8604 67.464 41.5109 66.9705 40.1031 66.8399C38.6953 66.7094 37.2777 66.9463 35.9896 67.5274C34.9326 68.0008 33.9878 68.6911 33.2166 69.5532C32.4402 70.4129 31.8572 71.4281 31.5065 72.5308C31.1558 73.6334 31.0456 74.798 31.1833 75.9465C31.4016 77.7808 32.2333 79.4884 33.5445 80.7939C34.8557 82.0994 36.5698 82.9267 38.4104 83.1424C38.7224 83.1759 39.0368 83.1939 39.3512 83.1939C40.4363 83.1953 41.5108 82.9807 42.5117 82.5627C43.5125 82.1447 44.4195 81.5318 45.1795 80.7598C45.2427 80.6961 45.3178 80.6454 45.4006 80.6107C45.4835 80.5761 45.5724 80.5581 45.6622 80.5578C45.7927 80.5576 45.9203 80.5958 46.0292 80.6674L47.3131 81.5068C47.3753 81.5481 47.4281 81.6022 47.4677 81.6654C47.5073 81.7286 47.533 81.7995 47.5429 81.8734C47.5522 81.9474 47.5452 82.0225 47.5226 82.0935C47.4999 82.1646 47.462 82.2299 47.4116 82.2849L47.4107 82.2833ZM48.2029 73.8217C47.5035 73.8217 46.8327 73.5447 46.3382 73.0518C45.8436 72.5589 45.5658 71.8904 45.5658 71.1933C45.5658 70.4962 45.8436 69.8276 46.3382 69.3347C46.8327 68.8418 47.5035 68.5648 48.2029 68.5648C48.9023 68.5648 49.5731 68.8418 50.0676 69.3347C50.5622 69.8276 50.84 70.4962 50.84 71.1933C50.84 71.8904 50.5622 72.5589 50.0676 73.0518C49.5731 73.5447 48.9023 73.8217 48.2029 73.8217ZM106.135 70.4401C106.438 70.4406 106.734 70.3517 106.986 70.1847C107.238 70.0177 107.435 69.78 107.552 69.5017C107.668 69.2231 107.699 68.9164 107.641 68.6204C107.582 68.3243 107.437 68.0522 107.224 67.8383C107.064 67.6788 106.87 67.5567 106.657 67.4806C106.444 67.4046 106.217 67.3765 105.991 67.3984C105.766 67.4203 105.549 67.4916 105.354 67.6073C105.16 67.723 104.994 67.8801 104.868 68.0674C104.699 68.3183 104.609 68.6132 104.609 68.915C104.607 69.2168 104.695 69.5124 104.862 69.764C105.03 70.0155 105.268 70.2116 105.548 70.3272C105.735 70.4033 105.934 70.4418 106.135 70.4401ZM82.0295 71.5013C78.7821 71.5013 76.7266 74.0082 76.7266 76.9324C76.7266 79.9408 78.8863 82.4903 82.2192 82.4903C85.2376 82.4903 86.8958 80.3164 87.1446 78.896L84.3987 78.6031C84.1574 78.9486 83.8338 79.2288 83.457 79.4188C83.0801 79.6087 82.6618 79.7024 82.2397 79.6913C80.6061 79.6913 79.9551 78.7913 79.8928 77.9568H87.3334V77.15C87.3334 74.0737 85.3213 71.5013 82.0295 71.5013ZM79.8928 75.8082C79.9551 74.9933 80.7728 74.3044 82.0295 74.3044C83.3044 74.3044 84.1056 75.0105 84.168 75.8082H79.8928ZM128.794 75.9768C126.489 75.224 125.961 75.1618 125.961 74.7225C125.961 74.2831 126.569 74.117 127.071 74.117C127.574 74.117 128.33 74.3044 128.347 74.9524H131.534C131.491 73.0927 129.834 71.5054 126.964 71.5054C124.784 71.5054 122.772 72.7163 122.772 74.7225C122.772 76.4783 124.093 77.4168 126.062 77.9608C128.158 78.5458 128.83 78.6498 128.83 79.2323C128.83 79.7126 128.096 79.8803 127.51 79.8803C126.419 79.8803 125.686 79.4835 125.622 78.8772H122.464C122.526 81.3416 124.559 82.4919 127.451 82.4919C129.904 82.4919 132 81.4038 132 79.2937C132.002 78.1278 131.436 76.8113 128.794 75.9768ZM88.7798 82.2849H91.9443V66.6168H88.7798V82.2849ZM104.562 82.2849H107.727V71.714H104.562V82.2849ZM63.2335 74.8689C63.2335 79.2143 66.5458 82.4952 70.6954 82.4952C73.0851 82.4952 74.5307 81.4921 75.0339 81.0536V77.8962C74.6784 78.3356 73.3166 79.5048 71.0944 79.5048C68.5578 79.5048 66.3989 77.6876 66.3989 74.8673C66.3989 72.047 68.5578 70.2061 71.0944 70.2061C73.3166 70.2061 74.6784 71.3974 75.0339 71.8359V68.6843C74.5307 68.2449 73.0851 67.2418 70.6946 67.2418C66.5409 67.2418 63.2327 70.5228 63.2327 74.8673L63.2335 74.8689ZM99.8742 75.9776C97.5683 75.2248 97.0396 75.1627 97.0396 74.7233C97.0396 74.2839 97.6471 74.1178 98.1503 74.1178C98.6535 74.1178 99.4079 74.3052 99.426 74.9532H102.613C102.57 73.0935 100.913 71.5062 98.0428 71.5062C95.8641 71.5062 93.8513 72.7171 93.8513 74.7233C93.8513 76.4791 95.1704 77.4176 97.1414 77.9617C99.2372 78.5467 99.9078 78.6506 99.9078 79.2331C99.9078 79.7134 99.1748 79.8811 98.5887 79.8811C97.4969 79.8811 96.7646 79.4843 96.7006 78.878H93.5385C93.6009 81.3424 95.6342 82.4928 98.5263 82.4928C100.979 82.4928 103.074 81.4046 103.074 79.2945C103.074 78.1286 102.509 76.8121 99.8684 75.9776H99.8742Z" fill="url(#paint0_linear_505_568)"/>
</g>
<defs>
<linearGradient id="paint0_linear_505_568" x1="30.6505" y1="95.1148" x2="117.429" y2="52.6572" gradientUnits="userSpaceOnUse">
<stop stop-color="#382BC6"/>
<stop offset="1" stop-color="#FF3CAC"/>
</linearGradient>
<clipPath id="clip0_505_568">
<rect width="110" height="36" fill="white" transform="translate(22 57)"/>
</clipPath>
</defs>
</svg>
