<svg width="154" height="150" viewBox="0 0 154 150" fill="none" xmlns="http://www.w3.org/2000/svg">
<rect width="154" height="150" rx="16" fill="white"/>
<g clip-path="url(#clip0_505_625)">
<path d="M40.0867 70.0264C39.5956 69.7347 38.9572 69.7347 38.417 70.0264L34.5862 72.2632L31.9833 73.722L28.1526 75.9588C27.6615 76.2505 27.023 76.2505 26.4828 75.9588L23.4378 74.2083C22.9467 73.9165 22.6029 73.3816 22.6029 72.7981V69.3457C22.6029 68.7622 22.8976 68.2273 23.4378 67.9355L26.4337 66.2336C26.9248 65.9419 27.5632 65.9419 28.1035 66.2336L31.0993 67.9355C31.5904 68.2273 31.9342 68.7622 31.9342 69.3457V71.5824L34.5371 70.0751V67.8383C34.5371 67.2548 34.2425 66.7199 33.7022 66.4281L28.1526 63.2188C27.6615 62.9271 27.023 62.9271 26.4828 63.2188L20.8349 66.4281C20.2947 66.7199 20 67.2548 20 67.8383V74.3055C20 74.889 20.2947 75.4239 20.8349 75.7156L26.4828 78.9249C26.9739 79.2167 27.6124 79.2167 28.1526 78.9249L31.9833 76.7367L34.5862 75.2294L38.417 73.0412C38.9081 72.7495 39.5465 72.7495 40.0867 73.0412L43.0825 74.7432C43.5737 75.0349 43.9175 75.5698 43.9175 76.1533V79.6057C43.9175 80.1892 43.6228 80.7241 43.0825 81.0158L40.0867 82.7664C39.5956 83.0582 38.9572 83.0582 38.417 82.7664L35.4211 81.0645C34.93 80.7727 34.5862 80.2379 34.5862 79.6543V77.4176L31.9833 78.9249V81.1617C31.9833 81.7452 32.2779 82.2801 32.8182 82.5718L38.4661 85.7812C38.9572 86.073 39.5956 86.073 40.1358 85.7812L45.7837 82.5718C46.2748 82.2801 46.6186 81.7452 46.6186 81.1617V74.6945C46.6186 74.111 46.3239 73.5761 45.7837 73.2844L40.0867 70.0264Z" fill="#7950DD"/>
<path d="M56.9882 83.9319V78.5629C57.5871 79.296 58.6739 79.7057 59.9384 79.7057C63.1547 79.7057 65.3286 77.4847 65.3286 74.0994C65.3286 70.7141 63.3322 68.4932 60.2045 68.4932C58.7627 68.4932 57.6536 69.0107 56.9882 69.8516V68.6657H53.9048V83.9319H56.9882ZM59.5613 77.1182C57.8976 77.1182 56.8107 75.9107 56.8107 74.0994C56.8107 72.2666 57.8976 71.0591 59.5613 71.0591C61.1805 71.0591 62.2897 72.2666 62.2897 74.0994C62.2897 75.9107 61.1805 77.1182 59.5613 77.1182Z" fill="black"/>
<path d="M72.3301 79.7057C75.7684 79.7057 78.2306 77.3338 78.2306 74.0994C78.2306 70.865 75.7684 68.4932 72.3301 68.4932C68.8919 68.4932 66.4297 70.865 66.4297 74.0994C66.4297 77.3338 68.8919 79.7057 72.3301 79.7057ZM72.3301 77.1182C70.6665 77.1182 69.5352 75.8891 69.5352 74.0994C69.5352 72.2882 70.6665 71.0591 72.3301 71.0591C73.9938 71.0591 75.1251 72.2882 75.1251 74.0994C75.1251 75.8891 73.9938 77.1182 72.3301 77.1182Z" fill="black"/>
<path d="M83.178 79.5333V63.9436H80.0947V79.5333H83.178Z" fill="black"/>
<path d="M92.4465 68.6658L90.1174 75.6736L87.7661 68.6658H84.6162L88.6756 79.447L87.0341 83.932H89.9843L91.5593 79.4901L95.6186 68.6658H92.4465Z" fill="black"/>
<path d="M104.278 69.7438C103.657 68.9891 102.548 68.4932 101.195 68.4932C97.9335 68.4932 95.9597 70.7141 95.9597 74.0994C95.9597 77.4847 97.9335 79.7057 101.239 79.7057C102.548 79.7057 103.723 79.2313 104.3 78.4335V79.8566C104.3 80.87 103.613 81.5816 102.681 81.5816H97.5341V83.9319H103.169C105.697 83.9319 107.384 82.4441 107.384 80.18V68.6657H104.278V69.7438ZM101.727 77.1182C100.085 77.1182 98.9982 75.9322 98.9982 74.0994C98.9982 72.2666 100.085 71.0591 101.727 71.0591C103.391 71.0591 104.478 72.2666 104.478 74.0994C104.478 75.9322 103.391 77.1182 101.727 77.1182Z" fill="black"/>
<path d="M115.157 79.7057C118.595 79.7057 121.057 77.3338 121.057 74.0994C121.057 70.865 118.595 68.4932 115.157 68.4932C111.719 68.4932 109.256 70.865 109.256 74.0994C109.256 77.3338 111.719 79.7057 115.157 79.7057ZM115.157 77.1182C113.493 77.1182 112.362 75.8891 112.362 74.0994C112.362 72.2882 113.493 71.0591 115.157 71.0591C116.82 71.0591 117.951 72.2882 117.951 74.0994C117.951 75.8891 116.82 77.1182 115.157 77.1182Z" fill="black"/>
<path d="M125.849 79.5332V73.5819C125.849 72.1804 126.803 71.1669 128.156 71.1669C129.442 71.1669 130.307 72.1157 130.307 73.431V79.5332H133.413V72.7625C133.413 70.2613 131.772 68.4932 129.243 68.4932C127.712 68.4932 126.47 69.1185 125.849 70.175V68.6657H122.744V79.5332H125.849Z" fill="black"/>
</g>
<defs>
<clipPath id="clip0_505_625">
<rect width="114" height="23" fill="white" transform="translate(20 63)"/>
</clipPath>
</defs>
</svg>
