<svg width="154" height="150" viewBox="0 0 154 150" fill="none" xmlns="http://www.w3.org/2000/svg">
<rect width="154" height="150" rx="16" fill="white"/>
<g clip-path="url(#clip0_505_637)">
<path fill-rule="evenodd" clip-rule="evenodd" d="M127.442 84.4839C127.535 84.4839 127.58 84.4169 127.58 84.3379V84.2109C127.58 84.1249 127.531 84.0729 127.442 84.0729H127.086V84.4839H127.442ZM127.087 84.6779V85.1449H126.844V83.8749H127.428C127.686 83.8749 127.832 84.0209 127.832 84.2789C127.832 84.5029 127.708 84.6259 127.554 84.6669L127.835 85.1449H127.566L127.304 84.6779H127.087ZM127.223 85.5879C127.381 85.6031 127.54 85.5831 127.69 85.5295C127.839 85.4759 127.975 85.3899 128.087 85.2777C128.199 85.1656 128.285 85.0299 128.339 84.8806C128.393 84.7313 128.413 84.5719 128.398 84.4139C128.373 84.1615 128.262 83.9254 128.082 83.7461C127.903 83.5668 127.667 83.4554 127.414 83.4309C127.256 83.4158 127.096 83.4358 126.947 83.4894C126.797 83.5431 126.662 83.6292 126.549 83.7414C126.437 83.8537 126.351 83.9894 126.297 84.1389C126.243 84.2883 126.223 84.4478 126.238 84.6059C126.28 85.1159 126.711 85.5459 127.223 85.5889V85.5879ZM76.89 77.7959L76.692 77.8559C75.166 78.3117 73.5395 78.3072 72.016 77.8429L71.818 77.7809L74.182 70.0589C74.24 69.8709 74.507 69.8719 74.563 70.0589L76.891 77.7959H76.89ZM71.48 66.6489L64.936 85.8349H69.352L70.781 81.1709L70.981 81.2309C73.151 81.8969 75.541 81.9029 77.711 81.2479L77.911 81.1879L79.311 85.8349H83.719L77.209 66.6529C77.0082 66.0621 76.6273 65.5491 76.1199 65.1859C75.6125 64.8227 75.004 64.6275 74.38 64.6279H74.306C73.683 64.6279 73.0756 64.8227 72.5688 65.1851C72.0621 65.5475 71.6814 66.0593 71.48 66.6489ZM116.905 69.9259H112.22L107.646 76.0719V64.6279H103.693V85.8359H107.646V78.2029L112.995 85.8359H117.402L111.555 77.5939C111.455 77.4536 111.404 77.2848 111.408 77.1128C111.413 76.9407 111.473 76.7748 111.58 76.6399L116.905 69.9259ZM96.176 69.9249H89.826C89.3607 69.9245 88.8999 70.0158 88.4699 70.1935C88.0399 70.3712 87.6491 70.6318 87.3199 70.9605C86.9906 71.2892 86.7293 71.6796 86.5509 72.1093C86.3724 72.539 86.2804 72.9997 86.28 73.4649V85.8349H90.234V74.3749C90.234 74.1336 90.3299 73.9021 90.5005 73.7315C90.6712 73.5608 90.9027 73.4649 91.144 73.4649H95.266C95.5074 73.4649 95.7388 73.5608 95.9095 73.7315C96.0801 73.9021 96.176 74.1336 96.176 74.3749V85.8349H100.129V73.4649C100.128 72.5254 99.7543 71.6247 99.0895 70.9609C98.4247 70.297 97.5235 69.9244 96.584 69.9249H96.176ZM128.647 69.9249H123.269C122.804 69.9245 122.343 70.0158 121.913 70.1935C121.483 70.3712 121.092 70.6318 120.763 70.9605C120.434 71.2892 120.172 71.6796 119.994 72.1093C119.815 72.539 119.723 72.9997 119.723 73.4649V85.8349H123.676V74.3749C123.676 74.1336 123.772 73.9021 123.943 73.7315C124.113 73.5608 124.345 73.4649 124.586 73.4649H128.647V69.9249ZM44.13 58.8839L55.234 64.5739C56.0245 64.9762 56.688 65.5897 57.1509 66.3463C57.6137 67.1029 57.8578 67.973 57.856 68.8599V71.4539H53.76V68.8599C53.7602 68.7258 53.7231 68.5942 53.6531 68.4798C53.583 68.3654 53.4826 68.2727 53.363 68.2119L42.26 62.5219C42.1569 62.4693 42.0428 62.4418 41.927 62.4418C41.8112 62.4418 41.6971 62.4693 41.594 62.5219L30.49 68.2119C30.3706 68.2729 30.2704 68.3656 30.2005 68.48C30.1306 68.5944 30.0938 68.7259 30.094 68.8599V71.4539H26V68.8599C25.9981 67.9731 26.242 67.1031 26.7047 66.3465C27.1674 65.5899 27.8307 64.9763 28.621 64.5739L39.726 58.8839C40.4077 58.5353 41.1624 58.3535 41.928 58.3535C42.6937 58.3535 43.4483 58.5353 44.13 58.8839ZM45.431 75.1279C45.431 73.1979 43.859 71.6279 41.927 71.6279C40.9984 71.6282 40.1078 71.9969 39.4507 72.653C38.7935 73.3092 38.4236 74.1993 38.422 75.1279C38.422 77.0579 39.994 78.6279 41.927 78.6279C42.8554 78.6271 43.7456 78.2583 44.4024 77.6022C45.0593 76.9461 45.4292 76.0563 45.431 75.1279ZM53.365 82.3899C53.4845 82.3291 53.5847 82.2363 53.6546 82.1219C53.7246 82.0075 53.7614 81.876 53.761 81.7419V79.1479H57.856V81.7429C57.8578 82.6295 57.614 83.4992 57.1515 84.2556C56.689 85.012 56.026 85.6255 55.236 86.0279L44.13 91.7179C43.4481 92.0658 42.6935 92.2474 41.928 92.2479C41.1625 92.2473 40.408 92.0657 39.726 91.7179L28.62 86.0279C27.83 85.6256 27.1669 85.0121 26.7044 84.2557C26.2419 83.4993 25.9981 82.6295 26 81.7429V79.1479H30.094V81.7429C30.094 82.0169 30.246 82.2649 30.49 82.3899L39.88 87.2009V82.4339C36.681 81.5399 34.327 78.6039 34.327 75.1279C34.327 70.9429 37.737 67.5379 41.927 67.5379C46.117 67.5379 49.527 70.9429 49.527 75.1279C49.527 78.6039 47.173 81.5399 43.974 82.4339V87.2019L53.364 82.3899H53.365Z" fill="#245AE5"/>
</g>
<defs>
<clipPath id="clip0_505_637">
<rect width="103" height="35" fill="white" transform="translate(26 58)"/>
</clipPath>
</defs>
</svg>
