<svg width="154" height="150" viewBox="0 0 154 150" fill="none" xmlns="http://www.w3.org/2000/svg">
<rect width="154" height="150" rx="16" fill="white"/>
<path fill-rule="evenodd" clip-rule="evenodd" d="M46.9877 60.582C46.3892 59.9433 45.8771 59.6144 45.0039 59.3076C44.6478 59.1825 44.0224 59.0735 43.5109 59.0475C41.8865 58.9647 40.5816 59.4441 39.5213 60.5132C38.4046 61.6391 37.9197 63.0268 37.9197 65.0971C37.9197 68.5097 39.7293 70.6866 42.79 70.9561C44.9642 71.1476 47.0234 70.0211 47.8947 68.1637C48.4122 67.0602 48.5348 66.4386 48.5178 65.0026C48.4936 62.9382 48.0822 61.75 46.9877 60.582ZM40.6051 62.3406C40.8798 61.1747 41.6042 60.1583 42.3851 59.8432C42.8236 59.6661 43.7971 59.7139 44.2238 59.9334C45.0607 60.3639 45.7055 61.4397 45.8875 62.7092C46.017 63.6126 46.0212 66.009 45.8951 66.9872C45.7667 67.9823 45.4266 68.8284 44.9231 69.4052C43.3937 71.1569 41.1744 70.1277 40.6071 67.4036C40.4292 66.5494 40.4279 63.0931 40.6051 62.3406Z" fill="black"/>
<path d="M80.1512 59.8486C79.743 59.5272 79.1083 59.2413 78.5284 59.1172C76.8473 58.758 74.6998 59.4109 73.464 60.6568C72.345 61.7851 71.8498 63.0931 71.8386 64.9504C71.8253 67.1231 72.5012 68.6329 74.0192 69.8214C74.7004 70.3547 75.4673 70.6613 76.6439 70.8708C79.2167 71.329 81.4473 69.9307 81.9428 67.549C82.0942 66.821 82.0244 66.6207 81.619 66.6207C81.2881 66.6207 81.2867 66.6232 81.1454 67.5023C80.9915 68.4591 80.2599 69.4274 79.3491 69.8798C78.9543 70.076 78.706 70.1169 77.9381 70.1125C77.142 70.1079 76.9208 70.0657 76.4201 69.8222C74.8505 69.0593 74.2718 67.5051 74.3949 64.3843C74.4705 62.4691 74.6832 61.7434 75.4017 60.9508C75.7305 60.588 76.1109 60.299 76.4606 60.1462C77.1381 59.8502 78.3556 59.7479 78.8419 59.946C80.0884 60.4538 80.7079 61.3608 81.1415 63.3123C81.2004 63.5773 81.2436 63.6024 81.5915 63.5733L81.9762 63.5411V61.2981C81.9762 59.7264 81.9769 59.0915 81.7718 59.0146C81.6323 58.9623 81.3977 59.1682 81.0029 59.513L80.397 60.0422L80.1512 59.8486Z" fill="black"/>
<path fill-rule="evenodd" clip-rule="evenodd" d="M104.92 64.7667C103.929 61.9108 103.054 59.4449 102.976 59.2871C102.857 59.0467 102.768 59 102.427 59C102.13 59 101.989 59.0549 101.912 59.2C101.854 59.3102 100.992 61.7374 99.9969 64.5939C99.0018 67.4505 98.1278 69.8261 98.0546 69.8729C97.9813 69.9197 97.6536 69.9588 97.3261 69.9597L96.7307 69.9613V70.7964H100.458V69.9863L99.8391 69.9412C99.4987 69.9164 99.1994 69.8751 99.174 69.8496C99.1486 69.824 99.2816 69.3571 99.4694 68.8121L99.811 67.8212L103.538 67.7644L103.914 68.8185C104.12 69.3982 104.289 69.8925 104.289 69.9169C104.289 69.9413 103.986 69.9613 103.616 69.9613H102.943V70.7964H108.12V69.9613L106.722 69.9592L104.92 64.7667ZM100.175 66.8034C100.201 66.7317 100.544 65.7457 100.936 64.6124C101.328 63.4792 101.672 62.5516 101.701 62.5511C101.729 62.5507 102.079 63.4989 102.477 64.6582C102.876 65.8175 103.218 66.8038 103.237 66.8499C103.256 66.8961 102.563 66.9339 101.698 66.9339C100.483 66.9339 100.137 66.9042 100.175 66.8034Z" fill="black"/>
<path fill-rule="evenodd" clip-rule="evenodd" d="M35.7893 61.3733C35.4553 60.3848 34.4481 59.595 33.1776 59.3253C32.8397 59.2536 31.3585 59.2088 29.3208 59.2088H26.0125V59.9308L27.6174 59.9917L27.6711 69.9525L26.0643 70.0135L26 70.7964H31.6162L31.5519 70.0135L30.0506 69.9521V65.7031L31.6814 65.6583C33.0488 65.6208 33.4066 65.5763 33.8968 65.3829C34.661 65.0814 35.4024 64.4143 35.7074 63.7538C36.0007 63.1191 36.0356 62.1019 35.7893 61.3733ZM29.9471 64.9504V59.9081L31.0924 59.9783C32.4187 60.0595 32.8921 60.2371 33.1985 60.7679C33.377 61.0772 33.405 61.3137 33.4033 62.4904C33.4009 64.1048 33.2981 64.3947 32.6093 64.731C32.2383 64.912 31.9659 64.9504 31.0533 64.9504H29.9471Z" fill="black"/>
<path d="M56.0393 59.9395V59.2088H50.0183L50.0857 59.8873L51.6388 59.9917L51.6926 69.9525L50.0857 70.0135L50.0425 70.7988L58.3613 70.7442L58.5916 68.6564C58.7182 67.508 58.8247 66.4862 58.8284 66.3858C58.8334 66.2428 58.7497 66.2031 58.4419 66.2031H58.0487L57.9276 67.0415C57.7865 68.0168 57.5454 68.6219 57.0885 69.1466C56.5725 69.739 55.99 69.9613 54.9533 69.9613H54.072V59.9395H56.0393Z" fill="black"/>
<path d="M63.8048 59.9395V59.2088H58.4452L58.4644 59.9395H59.8551L63.3907 66.1763V69.9613H61.8376V70.7964H67.2217V69.9613H65.6686V66.1584L67.3394 63.2029C68.2583 61.5774 69.062 60.2136 69.1255 60.1722C69.1888 60.1308 69.5203 60.0733 69.862 60.0443L70.4832 59.9917L70.5475 59.2088H66.9111V60.0439L67.3511 60.0455C67.5931 60.0464 67.8433 60.0816 67.9072 60.1238C67.9839 60.1745 67.5804 60.9864 66.7165 62.5199C65.9977 63.7955 65.3782 64.8408 65.3397 64.8427C65.2699 64.846 62.5624 60.1302 62.5624 60.0052C62.5624 59.9691 62.8419 59.9395 63.1836 59.9395H63.8048Z" fill="black"/>
<path d="M89.0687 59.9395V59.2088H83.5811V59.9303L85.0824 59.9917L85.1362 69.9613H83.5811V70.7964H89.0687V69.9613H87.5156V65.1592H91.5537V69.9613H90.0006V70.7964H95.4883V69.9613H93.9332L93.9869 59.9917L95.4883 59.9303V59.2088H90.0006V59.9395H91.5537V64.324H87.5156V59.9395H89.0687Z" fill="black"/>
<path d="M114.954 59.9395V59.2088H109.259V59.9308L110.864 59.9917L110.918 69.9613H109.259V70.7964H114.966L114.902 70.0135L113.297 69.9525V59.9395H114.954Z" fill="black"/>
<path d="M125.463 66.9437L119.887 59.2088H115.989V59.9395H117.542V64.887C117.542 68.8454 117.591 69.7434 117.254 69.9295C117.114 70.0068 116.907 69.9613 116.602 69.9613H115.989V70.7964H120.027V69.9613L119.38 69.9597C119.024 69.9588 118.674 69.9204 118.603 69.8745C118.5 69.809 118.478 68.8337 118.499 65.3519L118.526 60.9129L122.095 65.8547C125.256 70.231 125.696 70.7964 125.939 70.7964C126.091 70.7964 126.266 70.7335 126.33 70.6564C126.41 70.5587 126.453 68.942 126.472 65.3063L126.499 60.0961L128 59.9197V59.2088H123.962V59.9269L124.695 59.9998C125.099 60.0399 125.449 60.1254 125.474 60.1897C125.498 60.2541 125.506 61.8 125.491 63.6252L125.463 66.9437Z" fill="black"/>
<path d="M48.071 79.725C47.778 79.5262 47.3659 79.3125 47.1553 79.2502C46.5174 79.0615 45.2737 79.0384 44.4945 79.2009C42.2341 79.6721 40.6115 81.2994 40.1539 83.5541C39.4999 86.7753 40.9319 89.671 43.6563 90.6364C45.0699 91.1373 46.6676 91.1195 47.8078 90.5902C49.0499 90.0135 50.1015 88.5394 50.1616 87.2905L50.1893 86.7163H49.8283C49.4707 86.7163 49.4665 86.7216 49.3871 87.2779C49.2244 88.4184 48.5433 89.4093 47.5818 89.9044C47.1595 90.122 46.9403 90.1609 46.1512 90.1587C44.9523 90.1553 44.3419 89.9 43.6147 89.0979C42.8683 88.2744 42.6733 87.5819 42.6065 85.5158C42.5041 82.3525 42.985 81.0377 44.524 80.2737C45.3703 79.8536 46.5087 79.7502 47.1714 80.0332C48.1442 80.4487 48.9767 81.6207 49.2421 82.9487C49.365 83.5639 49.3804 83.5857 49.7165 83.6184C49.9246 83.6386 50.0989 83.5968 50.1509 83.514C50.2497 83.3569 50.2744 79.4614 50.1782 79.2086C50.0697 78.9235 49.7842 79.0259 49.1843 79.565L48.6039 80.0866L48.071 79.725Z" fill="black"/>
<path fill-rule="evenodd" clip-rule="evenodd" d="M59.9823 84.8109C58.9904 81.9546 58.1155 79.4885 58.0383 79.3305C57.9204 79.0899 57.8317 79.0435 57.4899 79.0435C57.186 79.0435 57.0533 79.0975 56.9696 79.2552C56.9078 79.3717 56.0441 81.8001 55.0502 84.6516C54.0564 87.5031 53.1851 89.8733 53.1141 89.9188C53.043 89.9643 52.717 90.0022 52.3895 90.0032L51.7941 90.0047V90.8399H55.5341L55.4698 90.0569L54.8704 89.992C54.5409 89.9563 54.2507 89.9065 54.2258 89.8813C54.2008 89.8562 54.3374 89.3921 54.5293 88.8501L54.8782 87.8647L58.5979 87.8079L58.939 88.7758C59.1266 89.3082 59.3013 89.8025 59.3274 89.8742C59.3622 89.9703 59.1942 90.0047 58.6907 90.0047H58.0066V90.8399H63.1836V90.0047L61.7858 90.0042L59.9823 84.8109ZM55.2358 86.8468C55.2617 86.7751 55.6044 85.7912 55.9976 84.6605C56.3907 83.5299 56.7449 82.6373 56.7847 82.6771C56.8246 82.7168 57.1839 83.7006 57.5835 84.8634L58.3099 86.9773H56.7494C55.5449 86.9773 55.1996 86.9476 55.2358 86.8468Z" fill="black"/>
<path fill-rule="evenodd" clip-rule="evenodd" d="M100.929 84.6236C99.9015 81.6925 99.0227 79.238 98.9766 79.169C98.9306 79.0999 98.7146 79.0435 98.4966 79.0435C98.1506 79.0435 98.0806 79.0865 97.9443 79.3827C97.8585 79.5694 97.0074 81.9769 96.0532 84.7329C95.0988 87.4889 94.2463 89.8025 94.1586 89.8742C94.0709 89.9461 93.7285 90.0047 93.3977 90.0047H92.7962V90.8399H96.5237V90.0047L96.0318 89.9974C95.6346 89.9915 95.4167 89.9884 95.335 89.8805C95.2357 89.7493 95.338 89.463 95.5645 88.828L95.9282 87.8079L99.6559 87.8647L100.002 88.8564C100.192 89.4019 100.349 89.8833 100.351 89.9264C100.353 89.9695 100.052 90.0047 99.6816 90.0047H99.0086V90.8399H104.302L104.237 90.0569L102.798 89.9525L100.929 84.6236ZM96.9298 84.9347C97.3126 83.8399 97.6622 82.8534 97.7064 82.7424C97.7812 82.5549 97.794 82.5592 97.8864 82.8016C98.2554 83.7702 99.315 86.912 99.2833 86.9439C99.262 86.9654 98.5671 86.97 97.7391 86.9542L96.2337 86.9251L96.9298 84.9347Z" fill="black"/>
<path fill-rule="evenodd" clip-rule="evenodd" d="M74.0545 81.2568C73.7603 80.5674 73.0076 79.8684 72.2125 79.5463C71.6433 79.3157 71.4931 79.306 68.0241 79.2735L64.4261 79.2399V79.9738L65.9274 80.0352L65.9812 90.0047H64.4261V90.8399H69.9137V90.0047H68.3606V85.7491L70.0432 85.7017C71.8639 85.6505 72.2309 85.5625 73.1008 84.9687C74.187 84.2274 74.6135 82.567 74.0545 81.2568ZM68.2571 85.0113V79.9516L69.4209 80.0229C70.7007 80.1013 71.1582 80.2597 71.5119 80.7475C71.7044 81.0129 71.7257 81.1913 71.7257 82.5406C71.7257 83.8969 71.7052 84.067 71.5093 84.3338C71.1446 84.8305 70.8025 84.9384 69.4737 84.9765L68.2571 85.0113Z" fill="black"/>
<path d="M81.4067 79.9742V79.2522H75.712V79.983H77.3687L77.375 80.2701C77.3852 80.7383 77.3879 89.6235 77.3779 89.8177C77.3702 89.9668 77.2377 90.001 76.5662 90.0264L75.7638 90.0569L75.6995 90.8399H81.4067V90.0047H79.7481L79.8019 80.0352L81.4067 79.9742Z" fill="black"/>
<path d="M111.33 79.9752V79.2522H105.428V79.983H106.981V90.0047H105.428V90.8399H109.57C113.445 90.8399 113.712 90.8281 113.713 90.6572C113.714 90.5568 113.806 89.6759 113.918 88.6998C114.031 87.7237 114.123 86.7725 114.124 86.5859C114.125 86.2675 114.103 86.2466 113.763 86.2466C113.564 86.2466 113.401 86.2583 113.401 86.2727C113.401 86.2871 113.332 86.6929 113.248 87.1744C113.059 88.2534 112.789 88.8331 112.244 89.3297C111.644 89.8762 111.264 90.0047 110.245 90.0047H109.361L109.414 80.0352L111.33 79.9752Z" fill="black"/>
<path d="M92.8984 83.1409C92.8975 82.8607 92.6769 80.2302 92.5921 79.4871C92.5905 79.4727 90.4075 79.461 87.7412 79.461H82.8933L82.7672 81.053C82.6979 81.9287 82.6143 82.8447 82.5816 83.0887L82.5222 83.5324H83.3281L83.4499 82.6319C83.6866 80.8819 84.1977 80.3464 85.7459 80.226L86.5838 80.1609V89.9976L84.3576 90.0569L84.2934 90.8399H91.1396V90.0047H88.9652V80.1918L89.457 80.1943C90.555 80.2 91.4169 80.5835 91.7065 81.195C91.8653 81.5302 92.0108 82.1737 92.1231 83.0365C92.1859 83.5193 92.197 83.5324 92.5437 83.5324C92.8864 83.5324 92.8997 83.5176 92.8984 83.1409Z" fill="black"/>
</svg>
