<svg width="154" height="150" viewBox="0 0 154 150" fill="none" xmlns="http://www.w3.org/2000/svg">
<rect width="154" height="150" rx="16" fill="white"/>
<path d="M44.9157 101.566H42.9728L37 85.6267H38.763L44.0162 99.911L49.2694 85.6267H50.9605L44.9157 101.566ZM60.4233 95.8092H51.788V95.8452C51.788 98.7236 53.8029 100.415 56.0337 100.415C57.6528 100.415 58.7682 99.9829 59.9196 99.0834V100.703C58.9122 101.494 57.437 101.818 56.0337 101.818C52.7235 101.818 50.2049 99.5152 50.2049 95.7013C50.2049 92.1752 52.5436 89.5846 55.6379 89.5846C58.5164 89.5846 60.4233 91.3476 60.4233 94.6938V95.8092ZM51.8959 94.4419H58.8762C58.7682 91.9953 57.4729 91.0238 55.566 91.0238C53.8029 91.0238 52.3637 92.2471 51.8959 94.4419ZM62.1864 101.566V90.4841C63.6976 89.9084 65.4246 89.5846 66.9718 89.5846C69.8502 89.5846 71.6133 90.7359 71.6133 93.6504V101.53H70.0301V93.9742C70.0301 91.5995 68.375 91.0598 66.8279 91.0598C65.6405 91.0598 64.5611 91.2757 63.7335 91.4915V101.53H62.1864V101.566ZM72.5848 91.2397V89.8724H74.3478V87.0299H75.931V89.8724H79.1332V91.2397H75.931V98.3638C75.931 99.875 76.5066 100.451 77.5861 100.451C78.3057 100.451 78.9173 100.199 79.7089 99.803V101.242C79.0253 101.602 78.2337 101.818 77.2622 101.818C75.6071 101.818 74.3838 100.918 74.3838 98.5077V91.2037H72.5848V91.2397ZM90.0713 89.8724V101.422C88.6681 101.674 87.2648 101.818 86.0775 101.818C82.7673 101.818 80.8963 100.667 80.8963 97.7521V89.8724H82.4794V97.6802C82.4794 99.875 84.1705 100.451 86.0055 100.451C86.7971 100.451 87.6966 100.415 88.5242 100.307V89.9084H90.0713V89.8724ZM94.317 91.8154V101.566H92.7339V90.9518C93.9212 90.1603 95.3964 89.6925 96.9796 89.6925C97.5913 89.6925 98.2389 89.7645 98.8866 89.9444V91.5275C98.2029 91.2757 97.4114 91.2397 96.8716 91.2397C95.7563 91.2037 94.8927 91.4556 94.317 91.8154ZM109.069 95.8092H100.434V95.8452C100.434 98.7236 102.449 100.415 104.679 100.415C106.299 100.415 107.414 99.9829 108.565 99.0834V100.703C107.558 101.494 106.083 101.818 104.679 101.818C101.369 101.818 98.8506 99.5152 98.8506 95.7013C98.8506 92.1752 101.189 89.5846 104.284 89.5846C107.162 89.5846 109.069 91.3476 109.069 94.6938V95.8092ZM100.542 94.4419H107.522C107.414 91.9953 106.119 91.0238 104.212 91.0238C102.413 91.0238 100.973 92.2471 100.542 94.4419ZM110.256 100.882V99.0474C111.228 99.947 112.235 100.451 113.459 100.451C114.898 100.451 115.797 99.875 115.797 98.5797C115.797 97.1765 114.79 96.8167 112.991 96.205C110.976 95.5214 110.112 94.6578 110.112 92.7868C110.112 90.7359 111.624 89.6206 113.711 89.6206C114.826 89.6206 115.941 89.8724 116.841 90.5201V92.2471C115.941 91.4915 115.042 90.9878 113.711 90.9878C112.451 90.9878 111.66 91.6714 111.66 92.7868C111.66 93.8663 112.271 94.406 114.034 94.9817C116.013 95.5933 117.345 96.3849 117.345 98.5077C117.345 100.81 115.582 101.854 113.459 101.854C112.199 101.818 110.976 101.458 110.256 100.882Z" fill="#60666C"/>
<path d="M43.4027 57.5357C39.3704 57.5357 36.2196 60.5967 36.2196 64.6946C36.2196 68.7925 39.2908 71.8273 43.4027 71.8273C47.5147 71.8273 50.6392 68.7401 50.6392 64.6684C50.6392 60.6229 47.5681 57.5357 43.4027 57.5357ZM43.4299 68.8741C41.1336 68.8741 39.451 67.0907 39.451 64.6956C39.451 62.2734 41.1064 60.4909 43.4027 60.4909C45.7262 60.4909 47.4079 62.3006 47.4079 64.6956C47.4079 67.0907 45.7262 68.8741 43.4299 68.8741ZM51.5199 60.6501H53.5229V71.5623H56.7271V57.8017H51.5199V60.6501ZM28.1559 60.4899C29.8386 60.4899 31.1736 61.5278 31.6804 63.0714H35.072C34.4574 59.7715 31.7338 57.5357 28.1831 57.5357C24.1507 57.5357 21 60.5967 21 64.6956C21 68.7945 24.0711 71.8283 28.1831 71.8283C31.6542 71.8283 34.4312 69.5925 35.0458 66.2654H31.6804C31.1998 67.8091 29.8648 68.8741 28.1821 68.8741C25.8586 68.8741 24.2303 67.0907 24.2303 64.6956C24.2313 62.2734 25.8334 60.4899 28.1559 60.4899ZM112.4 63.3646L110.051 63.019C108.929 62.8598 108.128 62.487 108.128 61.6084C108.128 60.6501 109.17 60.1715 110.585 60.1715C112.133 60.1715 113.122 60.8366 113.335 61.9278H116.433C116.085 59.1599 113.949 57.5367 110.665 57.5367C107.274 57.5367 105.031 59.2667 105.031 61.7152C105.031 64.0568 106.5 65.415 109.463 65.8402L111.813 66.1858C112.962 66.345 113.602 66.7985 113.602 67.6499C113.602 68.7411 112.481 69.1935 110.932 69.1935C109.036 69.1935 107.968 68.4217 107.808 67.2509H104.657C104.951 69.9391 107.06 71.8283 110.905 71.8283C114.403 71.8283 116.726 70.2313 116.726 67.4897C116.726 65.0412 115.044 63.7636 112.4 63.3646ZM55.125 52.133C53.9502 52.133 53.0685 52.9844 53.0685 54.1552C53.0685 55.3261 53.9492 56.1775 55.125 56.1775C56.2999 56.1775 57.1815 55.3261 57.1815 54.1552C57.1815 52.9844 56.2999 52.133 55.125 52.133ZM102.147 62.5132C102.147 59.5327 100.331 57.5367 96.4865 57.5367C92.8552 57.5367 90.8259 59.3735 90.4249 62.1948H93.6028C93.763 61.1036 94.6175 60.1987 96.4331 60.1987C98.0624 60.1987 98.8634 60.9172 98.8634 61.7958C98.8634 62.9404 97.3944 63.2326 95.5787 63.419C93.1222 63.685 90.0783 64.5364 90.0783 67.7305C90.0783 70.2061 91.9211 71.8021 94.8583 71.8021C97.1546 71.8021 98.5964 70.8439 99.3179 69.3265C99.4247 70.6837 100.439 71.5623 101.855 71.5623H103.724V68.7149H102.148V62.5132H102.147ZM98.9964 65.9732C98.9964 67.8101 97.3944 69.1673 95.4447 69.1673C94.2426 69.1673 93.228 68.6615 93.228 67.5975C93.228 66.2403 94.8573 65.8674 96.3525 65.7082C97.7944 65.5752 98.5954 65.2558 98.9964 64.6432V65.9732ZM81.9873 57.5357C80.1979 57.5357 78.7026 58.2813 77.6345 59.5317V52H74.4304V71.5623H77.5811V69.7527C78.6492 71.0565 80.1717 71.8283 81.9873 71.8283C85.8323 71.8283 88.7432 68.7945 88.7432 64.6956C88.7432 60.5967 85.7789 57.5357 81.9873 57.5357ZM81.5067 68.8741C79.2104 68.8741 77.5277 67.0907 77.5277 64.6956C77.5277 62.3006 79.2366 60.4909 81.5329 60.4909C83.8564 60.4909 85.4847 62.2744 85.4847 64.6956C85.4847 67.0907 83.803 68.8741 81.5067 68.8741ZM66.7667 57.5357C64.684 57.5357 63.3217 58.3871 62.5207 59.5851V57.8017H59.3428V71.5613H62.5469V64.083C62.5469 61.9802 63.882 60.4899 65.8578 60.4899C67.7007 60.4899 68.8484 61.7938 68.8484 63.684V71.5623H72.0525V63.4452C72.0535 59.9841 70.265 57.5357 66.7667 57.5357ZM132 64.2432C132 60.3045 129.116 57.5367 125.244 57.5367C121.132 57.5367 118.114 60.624 118.114 64.6956C118.114 68.9809 121.346 71.8283 125.298 71.8283C128.636 71.8283 131.252 69.8585 131.919 67.0645H128.581C128.101 68.2887 126.926 68.9809 125.35 68.9809C123.293 68.9809 121.745 67.7033 121.398 65.4674H131.999V64.2432H132ZM121.586 63.1782C122.093 61.2618 123.535 60.3307 125.191 60.3307C127.006 60.3307 128.395 61.3686 128.715 63.1782H121.586Z" fill="#0052FF"/>
</svg>
