<svg width="154" height="150" viewBox="0 0 154 150" fill="none" xmlns="http://www.w3.org/2000/svg">
<rect width="154" height="150" rx="16" fill="white"/>
<path d="M126.557 67.4004C124.862 67.3783 123.2 67.85 121.78 68.7556C120.361 69.6612 119.249 70.9597 118.584 72.4861C117.92 74.0125 117.735 75.6977 118.052 77.3277C118.368 78.9575 119.173 80.4584 120.362 81.6394C121.552 82.8205 123.074 83.6282 124.734 83.9601C126.394 84.2921 128.117 84.133 129.685 83.5033C131.252 82.8737 132.593 81.8017 133.536 80.4238C134.48 79.0459 134.984 77.4243 134.984 75.7652C134.985 73.5659 134.1 71.455 132.522 69.8895C130.945 68.3239 128.802 67.4297 126.557 67.4004ZM126.557 80.5331C125.888 80.5683 125.22 80.4699 124.592 80.2437C123.964 80.0176 123.389 79.6685 122.903 79.2177C122.418 78.7669 122.031 78.2241 121.767 77.6221C121.502 77.0201 121.366 76.3717 121.366 75.7164C121.366 75.0611 121.502 74.4127 121.767 73.8107C122.031 73.2087 122.418 72.6658 122.903 72.2151C123.389 71.7644 123.964 71.4153 124.592 71.1891C125.22 70.9629 125.888 70.8645 126.557 70.8997C127.815 70.966 129 71.5024 129.867 72.3985C130.734 73.2945 131.217 74.482 131.217 75.7164C131.217 76.9509 130.734 78.1383 129.867 79.0344C129 79.9304 127.815 80.4668 126.557 80.5331Z" fill="#2853C3"/>
<path d="M114.932 67.5162C114.89 67.4768 114.833 67.4548 114.775 67.4548C114.716 67.4548 114.66 67.4768 114.618 67.5162L108.826 73.1183L103.106 67.5162C103.063 67.4768 103.007 67.4548 102.948 67.4548C102.889 67.4548 102.833 67.4768 102.79 67.5162L100.46 69.8831C100.42 69.9247 100.397 69.9798 100.397 70.0371C100.397 70.0944 100.42 70.1495 100.46 70.1911L106.18 75.7932L100.374 81.4793C100.334 81.5209 100.311 81.576 100.311 81.6334C100.311 81.6907 100.334 81.7458 100.374 81.7874L102.662 84.0143C102.688 84.0414 102.719 84.0631 102.753 84.0779C102.787 84.0927 102.825 84.1004 102.862 84.1004C102.9 84.1004 102.938 84.0927 102.972 84.0779C103.006 84.0631 103.037 84.0414 103.063 84.0143L108.783 78.4122L114.503 84.0143C114.546 84.0536 114.602 84.0756 114.661 84.0756C114.719 84.0756 114.775 84.0536 114.818 84.0143L117.149 81.7454C117.189 81.7038 117.212 81.6487 117.212 81.5914C117.212 81.534 117.189 81.4789 117.149 81.4373L111.428 75.8352L117.235 70.2332C117.275 70.1915 117.298 70.1364 117.298 70.0791C117.298 70.0218 117.275 69.9667 117.235 69.9251L114.932 67.5162Z" fill="#2853C3"/>
<path d="M99.0162 74.8679C98.6617 70.7134 95.1284 67.4357 90.802 67.4004C89.5689 67.4004 88.362 67.6548 87.2448 68.1654C84.1806 69.5679 82.4678 72.5443 82.4678 75.7976C82.636 80.2111 86.4877 83.8359 91.0004 83.8359H95.7353C95.9877 83.8359 96.198 83.6359 96.198 83.3828V80.7289C96.198 80.4818 95.9937 80.2758 95.7353 80.2758H90.7961C88.729 80.2758 86.9744 78.7694 86.3435 76.9511H98.4574C98.7878 76.9511 99.0523 76.7098 99.0523 76.4155C99.0461 76.0444 99.0162 74.8679 99.0162 74.8679ZM95.1225 74.0147H86.3615C87.0767 72.0435 89.0661 70.7788 91.1866 70.9782C93.0253 71.1488 94.5096 72.3846 95.1225 74.0147Z" fill="#2853C3"/>
<path d="M71.8613 67.4074C70.294 67.4439 68.7721 67.9309 67.4852 68.8079V67.8836C67.4852 67.8093 67.4551 67.7381 67.4014 67.6855C67.3478 67.633 67.275 67.6035 67.1992 67.6035H64.1388C64.0629 67.6035 63.9902 67.633 63.9365 67.6855C63.8829 67.7381 63.8528 67.8093 63.8528 67.8836V75.3483C63.8456 75.4743 63.8456 75.6005 63.8528 75.7265V83.3453C63.8527 83.4654 63.9004 83.5809 63.9859 83.6672C64.0713 83.7535 64.1877 83.8037 64.3104 83.8074H67.0276C67.0889 83.8074 67.1497 83.7954 67.2061 83.772C67.2626 83.7486 67.3137 83.7144 67.3563 83.6713C67.3991 83.6281 67.4325 83.577 67.4546 83.521C67.4767 83.465 67.4871 83.4053 67.4852 83.3453V75.5444C67.4861 74.9038 67.6237 74.2706 67.8893 73.6853C68.1549 73.0999 68.5426 72.5754 69.0274 72.1454C69.5122 71.7155 70.0835 71.3896 70.7045 71.1887C71.3256 70.9877 71.9827 70.9162 72.6336 70.9787C73.818 71.1005 74.9137 71.65 75.7069 72.52C76.5001 73.39 76.9339 74.5181 76.9239 75.6845V83.3733C76.922 83.4333 76.9324 83.4931 76.9545 83.5491C76.9767 83.6051 77.0101 83.6561 77.0528 83.6993C77.0954 83.7424 77.1466 83.7766 77.203 83.8C77.2595 83.8234 77.3202 83.8354 77.3815 83.8354H80.0844C80.2096 83.8354 80.3296 83.7867 80.4181 83.7001C80.5066 83.6134 80.5563 83.4958 80.5563 83.3733V75.5444C80.5535 74.4444 80.3237 73.3563 79.8809 72.3454C79.438 71.3345 78.7911 70.4217 77.979 69.6617C77.167 68.9018 76.2065 68.3104 75.1552 67.923C74.1039 67.5356 72.9836 67.3602 71.8613 67.4074Z" fill="#2853C3"/>
<path d="M19.0415 65.9175V83.4596C19.0418 83.5649 19.071 83.6684 19.126 83.7598C19.1811 83.8512 19.2603 83.9276 19.3558 83.9813L27.2119 88.2799V70.3776L19.0415 65.9175Z" fill="#60BEFF"/>
<path d="M43.5261 61.4448L51.3823 65.7434C51.4778 65.7971 51.5569 65.8735 51.6121 65.9649C51.6671 66.0564 51.6962 66.1598 51.6965 66.2652V83.8072L43.5261 79.3347V61.4448Z" fill="#1A4199"/>
<path d="M27.1985 88.2797L35.3689 83.8072L27.1985 79.3347V88.2797Z" fill="#3CA9E5"/>
<path d="M27.513 61.619L43.5265 70.39V79.335L19.0415 65.9176L26.8977 61.619C26.9908 61.5665 27.097 61.5388 27.2054 61.5388C27.3136 61.5388 27.42 61.5665 27.513 61.619Z" fill="#3CA9E5"/>
<path d="M43.5264 61.4448L35.3691 65.9173L43.5264 70.3898V61.4448Z" fill="#2853C3"/>
<path d="M51.6966 83.8073L43.8405 88.1058C43.7438 88.1548 43.6358 88.1804 43.5262 88.1804C43.4166 88.1804 43.3087 88.1548 43.212 88.1058L27.1985 79.3348V70.3774L51.6966 83.8073Z" fill="#2853C3"/>
</svg>
