<svg width="111" height="32" viewBox="0 0 111 32" fill="none" xmlns="http://www.w3.org/2000/svg">
<g clip-path="url(#clip0_347_93)">
<path d="M52.1201 18.0139C54.0059 18.3744 56.1922 19.04 56.1922 21.12C56.1922 23.0613 54.3065 24.1429 51.9562 24.1429C49.1959 24.1429 47.5014 22.7563 46.8729 20.0107H43.4567C43.8939 24.448 47.0642 27.0272 51.7922 27.0272C55.7003 27.0272 59.6631 24.9749 59.6631 20.8981C59.6631 16.8768 56.3562 15.5456 52.8854 14.88L50.453 14.4085C48.7313 14.0757 47.5014 13.2992 47.5014 11.7461C47.5014 9.77707 49.7698 9.08374 51.3002 9.08374C53.268 9.08374 55.3177 9.74934 55.8916 12.1899H59.2531C58.4606 8.00214 55.427 6.19947 51.4916 6.19947C47.8567 6.19947 44.0033 8.11307 44.0033 11.8571C44.0033 15.2683 46.5722 16.8768 49.7151 17.5424L52.1201 18.0139Z" fill="black"/>
<path d="M62.2987 6.56V9.888H65.5509V6.56H62.2987ZM62.2987 11.7461V26.6667H65.5509V11.7461H62.2987Z" fill="black"/>
<path d="M69.2111 6.56V26.6667H72.4634V21.8965L74.0211 20.2048L78.6398 26.6667H82.4386L76.1802 17.8752L81.8101 11.7461H77.9019L72.4634 17.7365V6.56H69.2111Z" fill="black"/>
<path d="M83.8367 6.56V26.6667H87.0889V21.8965L88.6467 20.2048L93.2654 26.6667H97.0642L90.8058 17.8752L96.4356 11.7461H92.5275L87.0889 17.7365V6.56H83.8367Z" fill="black"/>
<path d="M107.296 20.7872C107.296 23.3387 105.875 24.5589 103.47 24.5589C101.83 24.5589 100.764 23.7824 100.764 22.4789C100.764 20.7872 102.677 20.0939 107.296 19.6501V20.7872ZM102.759 27.0272C104.946 27.0272 106.64 26.2784 107.597 24.6421C107.679 25.6683 107.761 26.0288 107.87 26.6667H110.849C110.548 25.4187 110.412 23.4496 110.412 21.5637C110.412 20.2048 110.466 18.4299 110.466 17.7088C110.548 12.9387 107.788 11.3024 104.263 11.3024C100.71 11.3024 98.2227 13.4101 98.0041 16.4331H101.202C101.284 14.6304 102.513 13.7429 104.153 13.7429C105.793 13.7429 107.214 14.5195 107.214 17.0709V17.3483C101.858 17.9307 97.3209 18.8181 97.3209 22.5621C97.3209 25.28 99.5619 27.0272 102.759 27.0272Z" fill="black"/>
<path d="M11.9829 22.9333L17.3437 22.9333L17.3437 18.6667L11.9829 18.6667C5.87319 18.6667 4.30963 13.8667 4.30963 11.7333C4.30963 7.46665 8.82952 4.37332 11.9829 4.37332L18.8153 4.37332L15.0312 11.7333L19.8664 11.7333L25.7528 -9.53674e-06L11.9829 -1.07583e-05C5.67611 -1.13178e-05 -2.20657e-06 4.26665 -2.84982e-06 11.7333C-3.49307e-06 19.2 5.67613 22.9333 11.9829 22.9333Z" fill="#8643D5"/>
<path fill-rule="evenodd" clip-rule="evenodd" d="M12.6091 22.9333H11.9829C10.6314 22.9333 9.30895 22.7618 8.06507 22.419L3.25854 31.9999H19.1307C25.4375 31.9999 31.1136 27.7332 31.1136 20.2665C31.1136 12.7999 25.4375 9.06654 19.1307 9.06654H11.6677V13.3332H19.1307C25.2404 13.3332 26.804 18.1332 26.804 20.2665C26.804 24.5332 22.2841 27.6265 19.1307 27.6265H10.196L12.6091 22.9333Z" fill="#FF8B20"/>
</g>
<defs>
<clipPath id="clip0_347_93">
<rect width="111" height="32" fill="white"/>
</clipPath>
</defs>
</svg>
