<svg width="111" height="32" viewBox="0 0 111 32" fill="none" xmlns="http://www.w3.org/2000/svg">
<g clip-path="url(#clip0_146_259)">
<path d="M52.1201 18.0141C54.0059 18.3746 56.1922 19.0402 56.1922 21.1202C56.1922 23.0616 54.3065 24.1432 51.9562 24.1432C49.1959 24.1432 47.5014 22.7565 46.8729 20.0109H43.4567C43.8939 24.4482 47.0642 27.0274 51.7922 27.0274C55.7003 27.0274 59.6631 24.9752 59.6631 20.8984C59.6631 16.877 56.3562 15.5458 52.8854 14.8802L50.453 14.4088C48.7313 14.076 47.5014 13.2994 47.5014 11.7464C47.5014 9.77731 49.7698 9.08397 51.3002 9.08397C53.268 9.08397 55.3177 9.74957 55.8916 12.1901H59.2531C58.4606 8.00237 55.427 6.19971 51.4916 6.19971C47.8567 6.19971 44.0033 8.11331 44.0033 11.8573C44.0033 15.2685 46.5722 16.877 49.7151 17.5426L52.1201 18.0141Z" fill="white"/>
<path d="M62.2987 6.56024V9.88824H65.5509V6.56024H62.2987ZM62.2987 11.7464V26.6669H65.5509V11.7464H62.2987Z" fill="white"/>
<path d="M69.2111 6.56024V26.6669H72.4634V21.8968L74.0211 20.205L78.6398 26.6669H82.4386L76.1802 17.8754L81.8101 11.7464H77.9019L72.4634 17.7368V6.56024H69.2111Z" fill="white"/>
<path d="M83.8367 6.56024V26.6669H87.0889V21.8968L88.6467 20.205L93.2654 26.6669H97.0642L90.8058 17.8754L96.4356 11.7464H92.5275L87.0889 17.7368V6.56024H83.8367Z" fill="white"/>
<path d="M107.296 20.7874C107.296 23.3389 105.875 24.5592 103.47 24.5592C101.83 24.5592 100.764 23.7826 100.764 22.4792C100.764 20.7874 102.677 20.0941 107.296 19.6504V20.7874ZM102.759 27.0274C104.946 27.0274 106.64 26.2786 107.597 24.6424C107.679 25.6685 107.761 26.029 107.87 26.6669H110.849C110.548 25.4189 110.412 23.4498 110.412 21.564C110.412 20.205 110.466 18.4301 110.466 17.709C110.548 12.9389 107.788 11.3026 104.263 11.3026C100.71 11.3026 98.2227 13.4104 98.0041 16.4333H101.202C101.284 14.6306 102.513 13.7432 104.153 13.7432C105.793 13.7432 107.214 14.5197 107.214 17.0712V17.3485C101.858 17.9309 97.3209 18.8184 97.3209 22.5624C97.3209 25.2802 99.5619 27.0274 102.759 27.0274Z" fill="white"/>
<path d="M11.9829 22.9331L17.3437 22.9331L17.3437 18.6664L11.9829 18.6664C5.87319 18.6664 4.30963 13.8664 4.30963 11.7331C4.30963 7.46644 8.82952 4.37311 11.9829 4.37311L18.8153 4.37311L15.0312 11.7331L19.8664 11.7331L25.7528 -0.00022316L11.9829 -0.000224381C5.67611 -0.000224941 -2.20657e-06 4.26644 -2.84982e-06 11.7331C-3.49307e-06 19.1998 5.67613 22.9331 11.9829 22.9331Z" fill="#1C5BFF"/>
<path fill-rule="evenodd" clip-rule="evenodd" d="M12.6091 22.9336H11.9829C10.6314 22.9336 9.30896 22.7622 8.06509 22.4193L3.25854 32.0002H19.1307C25.4375 32.0002 31.1136 27.7336 31.1136 20.2669C31.1136 12.8002 25.4375 9.06689 19.1307 9.06689H11.6677V13.3336H19.1307C25.2404 13.3336 26.804 18.1336 26.804 20.2669C26.804 24.5336 22.2841 27.6269 19.1307 27.6269H10.196L12.6091 22.9336Z" fill="#FF8B20"/>
</g>
<defs>
<clipPath id="clip0_146_259">
<rect width="111" height="32" fill="white"/>
</clipPath>
</defs>
</svg>
