<svg width="360" height="150" viewBox="0 0 360 150" fill="none" xmlns="http://www.w3.org/2000/svg">
<rect width="360" height="150" rx="16" fill="white"/>
<g clip-path="url(#clip0_505_564)">
<path d="M133.327 72.8594C132.708 72.4915 131.903 72.4915 131.221 72.8594L126.391 75.6797L123.109 77.519L118.279 80.3393C117.66 80.7072 116.855 80.7072 116.174 80.3393L112.335 78.1322C111.715 77.7643 111.282 77.0899 111.282 76.3541V72.0011C111.282 71.2653 111.653 70.5909 112.335 70.223L116.112 68.0772C116.731 67.7093 117.536 67.7093 118.217 68.0772L121.995 70.223C122.614 70.5909 123.047 71.2653 123.047 72.0011V74.8214L126.329 72.9207V70.1004C126.329 69.3647 125.958 68.6903 125.277 68.3224L118.279 64.2759C117.66 63.908 116.855 63.908 116.174 64.2759L109.053 68.3224C108.372 68.6903 108 69.3647 108 70.1004V78.2548C108 78.9905 108.372 79.6649 109.053 80.0327L116.174 84.0792C116.793 84.4472 117.598 84.4472 118.279 84.0792L123.109 81.3202L126.391 79.4197L131.221 76.6607C131.841 76.2928 132.646 76.2928 133.327 76.6607L137.104 78.8066C137.723 79.1744 138.157 79.8489 138.157 80.5846V84.9376C138.157 85.6733 137.785 86.3478 137.104 86.7156L133.327 88.9229C132.708 89.2907 131.903 89.2907 131.221 88.9229L127.444 86.777C126.825 86.4091 126.391 85.7347 126.391 84.9989V82.1786L123.109 84.0792V86.8996C123.109 87.6353 123.481 88.3097 124.162 88.6775L131.283 92.7241C131.903 93.092 132.708 93.092 133.389 92.7241L140.51 88.6775C141.129 88.3097 141.563 87.6353 141.563 86.8996V78.7452C141.563 78.0095 141.191 77.3351 140.51 76.9673L133.327 72.8594Z" fill="#7950DD"/>
<path d="M154.637 90.3925V83.6228C155.392 84.5472 156.763 85.0638 158.357 85.0638C162.412 85.0638 165.153 82.2635 165.153 77.995C165.153 73.7266 162.636 70.9263 158.693 70.9263C156.875 70.9263 155.476 71.5788 154.637 72.6391V71.1438H150.75V90.3925H154.637ZM157.882 81.8013C155.784 81.8013 154.413 80.2788 154.413 77.995C154.413 75.6841 155.784 74.1616 157.882 74.1616C159.923 74.1616 161.322 75.6841 161.322 77.995C161.322 80.2788 159.923 81.8013 157.882 81.8013Z" fill="black"/>
<path d="M173.981 85.0638C178.317 85.0638 181.421 82.0731 181.421 77.995C181.421 73.9169 178.317 70.9263 173.981 70.9263C169.646 70.9263 166.542 73.9169 166.542 77.995C166.542 82.0731 169.646 85.0638 173.981 85.0638ZM173.981 81.8013C171.884 81.8013 170.457 80.2516 170.457 77.995C170.457 75.7113 171.884 74.1616 173.981 74.1616C176.079 74.1616 177.506 75.7113 177.506 77.995C177.506 80.2516 176.079 81.8013 173.981 81.8013Z" fill="black"/>
<path d="M187.659 84.8463V65.1897H183.772V84.8463H187.659Z" fill="black"/>
<path d="M199.346 71.1438L196.409 79.9797L193.444 71.1438H189.473L194.591 84.7375L192.521 90.3925H196.241L198.227 84.7919L203.345 71.1438H199.346Z" fill="black"/>
<path d="M214.264 72.5031C213.48 71.5516 212.082 70.9263 210.376 70.9263C206.264 70.9263 203.775 73.7266 203.775 77.995C203.775 82.2635 206.264 85.0638 210.432 85.0638C212.082 85.0638 213.564 84.4656 214.292 83.4597V85.2541C214.292 86.5319 213.425 87.4291 212.249 87.4291H205.76V90.3925H212.865C216.053 90.3925 218.179 88.5166 218.179 85.6619V71.1438H214.264V72.5031ZM211.047 81.8013C208.977 81.8013 207.607 80.306 207.607 77.995C207.607 75.6841 208.977 74.1616 211.047 74.1616C213.145 74.1616 214.515 75.6841 214.515 77.995C214.515 80.306 213.145 81.8013 211.047 81.8013Z" fill="black"/>
<path d="M227.98 85.0638C232.316 85.0638 235.42 82.0731 235.42 77.995C235.42 73.9169 232.316 70.9263 227.98 70.9263C223.645 70.9263 220.54 73.9169 220.54 77.995C220.54 82.0731 223.645 85.0638 227.98 85.0638ZM227.98 81.8013C225.882 81.8013 224.456 80.2516 224.456 77.995C224.456 75.7113 225.882 74.1616 227.98 74.1616C230.078 74.1616 231.504 75.7113 231.504 77.995C231.504 80.2516 230.078 81.8013 227.98 81.8013Z" fill="black"/>
<path d="M241.462 84.8463V77.3425C241.462 75.5753 242.665 74.2975 244.371 74.2975C245.992 74.2975 247.083 75.4938 247.083 77.1522V84.8463H250.999V76.3094C250.999 73.1556 248.929 70.9263 245.741 70.9263C243.811 70.9263 242.245 71.7147 241.462 73.0469V71.1438H237.547V84.8463H241.462Z" fill="black"/>
</g>
<defs>
<clipPath id="clip0_505_564">
<rect width="143.739" height="29" fill="white" transform="translate(108 64)"/>
</clipPath>
</defs>
</svg>
