<svg width="360" height="150" viewBox="0 0 360 150" fill="none" xmlns="http://www.w3.org/2000/svg">
<rect width="360" height="150" rx="16" fill="white"/>
<g clip-path="url(#clip0_505_565)">
<path fill-rule="evenodd" clip-rule="evenodd" d="M230.442 84.4839C230.535 84.4839 230.58 84.4169 230.58 84.3379V84.2109C230.58 84.1249 230.531 84.0729 230.442 84.0729H230.086V84.4839H230.442ZM230.087 84.6779V85.1449H229.844V83.8749H230.428C230.686 83.8749 230.832 84.0209 230.832 84.2789C230.832 84.5029 230.708 84.6259 230.554 84.6669L230.835 85.1449H230.566L230.304 84.6779H230.087ZM230.223 85.5879C230.381 85.6031 230.54 85.5831 230.69 85.5295C230.839 85.4759 230.975 85.3899 231.087 85.2777C231.199 85.1656 231.285 85.0299 231.339 84.8806C231.393 84.7313 231.413 84.5719 231.398 84.4139C231.373 84.1615 231.262 83.9254 231.082 83.7461C230.903 83.5668 230.667 83.4554 230.414 83.4309C230.256 83.4158 230.096 83.4358 229.947 83.4894C229.797 83.5431 229.662 83.6292 229.549 83.7414C229.437 83.8537 229.351 83.9894 229.297 84.1389C229.243 84.2883 229.223 84.4478 229.238 84.6059C229.28 85.1159 229.711 85.5459 230.223 85.5889V85.5879ZM179.89 77.7959L179.692 77.8559C178.166 78.3117 176.539 78.3072 175.016 77.8429L174.818 77.7809L177.182 70.0589C177.24 69.8709 177.507 69.8719 177.563 70.0589L179.891 77.7959H179.89ZM174.48 66.6489L167.936 85.8349H172.352L173.781 81.1709L173.981 81.2309C176.151 81.8969 178.541 81.9029 180.711 81.2479L180.911 81.1879L182.311 85.8349H186.719L180.209 66.6529C180.008 66.0621 179.627 65.5491 179.12 65.1859C178.612 64.8227 178.004 64.6275 177.38 64.6279H177.306C176.683 64.6279 176.076 64.8227 175.569 65.1851C175.062 65.5475 174.681 66.0593 174.48 66.6489ZM219.905 69.9259H215.22L210.646 76.0719V64.6279H206.693V85.8359H210.646V78.2029L215.995 85.8359H220.402L214.555 77.5939C214.455 77.4536 214.404 77.2848 214.408 77.1128C214.413 76.9407 214.473 76.7748 214.58 76.6399L219.905 69.9259ZM199.176 69.9249H192.826C192.361 69.9245 191.9 70.0158 191.47 70.1935C191.04 70.3712 190.649 70.6318 190.32 70.9605C189.991 71.2892 189.729 71.6796 189.551 72.1093C189.372 72.539 189.28 72.9997 189.28 73.4649V85.8349H193.234V74.3749C193.234 74.1336 193.33 73.9021 193.501 73.7315C193.671 73.5608 193.903 73.4649 194.144 73.4649H198.266C198.507 73.4649 198.739 73.5608 198.909 73.7315C199.08 73.9021 199.176 74.1336 199.176 74.3749V85.8349H203.129V73.4649C203.128 72.5254 202.754 71.6247 202.09 70.9609C201.425 70.297 200.523 69.9244 199.584 69.9249H199.176ZM231.647 69.9249H226.269C225.804 69.9245 225.343 70.0158 224.913 70.1935C224.483 70.3712 224.092 70.6318 223.763 70.9605C223.434 71.2892 223.172 71.6796 222.994 72.1093C222.815 72.539 222.723 72.9997 222.723 73.4649V85.8349H226.676V74.3749C226.676 74.1336 226.772 73.9021 226.943 73.7315C227.113 73.5608 227.345 73.4649 227.586 73.4649H231.647V69.9249ZM147.13 58.8839L158.234 64.5739C159.025 64.9762 159.688 65.5897 160.151 66.3463C160.614 67.1029 160.858 67.973 160.856 68.8599V71.4539H156.76V68.8599C156.76 68.7258 156.723 68.5942 156.653 68.4798C156.583 68.3654 156.483 68.2727 156.363 68.2119L145.26 62.5219C145.157 62.4693 145.043 62.4418 144.927 62.4418C144.811 62.4418 144.697 62.4693 144.594 62.5219L133.49 68.2119C133.371 68.2729 133.27 68.3656 133.201 68.48C133.131 68.5944 133.094 68.7259 133.094 68.8599V71.4539H129V68.8599C128.998 67.9731 129.242 67.1031 129.705 66.3465C130.167 65.5899 130.831 64.9763 131.621 64.5739L142.726 58.8839C143.408 58.5353 144.162 58.3535 144.928 58.3535C145.694 58.3535 146.448 58.5353 147.13 58.8839ZM148.431 75.1279C148.431 73.1979 146.859 71.6279 144.927 71.6279C143.998 71.6282 143.108 71.9969 142.451 72.653C141.794 73.3092 141.424 74.1993 141.422 75.1279C141.422 77.0579 142.994 78.6279 144.927 78.6279C145.855 78.6271 146.746 78.2583 147.402 77.6022C148.059 76.9461 148.429 76.0563 148.431 75.1279ZM156.365 82.3899C156.484 82.3291 156.585 82.2363 156.655 82.1219C156.725 82.0075 156.761 81.876 156.761 81.7419V79.1479H160.856V81.7429C160.858 82.6295 160.614 83.4992 160.151 84.2556C159.689 85.012 159.026 85.6255 158.236 86.0279L147.13 91.7179C146.448 92.0658 145.694 92.2474 144.928 92.2479C144.162 92.2473 143.408 92.0657 142.726 91.7179L131.62 86.0279C130.83 85.6256 130.167 85.0121 129.704 84.2557C129.242 83.4993 128.998 82.6295 129 81.7429V79.1479H133.094V81.7429C133.094 82.0169 133.246 82.2649 133.49 82.3899L142.88 87.2009V82.4339C139.681 81.5399 137.327 78.6039 137.327 75.1279C137.327 70.9429 140.737 67.5379 144.927 67.5379C149.117 67.5379 152.527 70.9429 152.527 75.1279C152.527 78.6039 150.173 81.5399 146.974 82.4339V87.2019L156.364 82.3899H156.365Z" fill="#245AE5"/>
</g>
<defs>
<clipPath id="clip0_505_565">
<rect width="103" height="35" fill="white" transform="translate(129 58)"/>
</clipPath>
</defs>
</svg>
