<svg width="522" height="557" viewBox="0 0 522 557" fill="none" xmlns="http://www.w3.org/2000/svg">
<path opacity="0.1" d="M0 112.74C0.54405 110.288 0.715842 107.742 1.37443 105.323C3.98098 95.6135 9.22188 88.3872 17.2125 83.3571C29.0974 75.8441 40.8399 68.0453 52.6389 60.3733C81.5645 41.5596 110.461 22.7137 139.387 3.96331C143.282 1.44825 146.608 0.0487978 152.132 0.0478516C154.324 0.0478516 162.041 0.0800307 165.879 0.0800307C168.542 -0.0155378 170.948 0.684664 173.297 1.95828C178.251 4.6957 182.919 8.00652 187.673 11.1262C220.665 32.6462 253.658 54.1983 286.65 75.7807C290.805 78.4868 295.126 80.9063 298.88 84.2806C307.814 92.2714 312.857 102.617 313.029 115.414C313.256 134.069 313.085 152.724 313.115 171.41C313.115 172.301 312.797 172.715 312.17 173.129C294.07 184.748 275.968 196.432 257.839 208.05C257.438 208.306 257.009 208.528 256.436 208.847C256.436 208.082 256.436 207.51 256.436 206.969C256.436 189.842 256.493 172.715 256.436 155.589C256.379 139.767 250.451 127.511 238.193 119.266C217.115 105.068 196.064 90.8701 174.929 76.7676C170.776 73.998 166.079 72.5654 161.296 71.833C154.08 70.7515 147.091 71.674 140.561 75.335C136.409 77.6599 132.428 80.4285 128.39 83.0391C110.719 94.4676 92.9634 105.736 75.4073 117.356C63.3211 125.346 56.7917 137.284 56.7344 153.105C56.6485 180.355 56.6199 207.606 56.7344 234.855C56.7917 250.453 62.9489 262.423 74.9778 270.541C95.9127 284.641 116.849 298.84 137.869 312.75C144.828 317.366 152.59 318.927 160.724 318.098C166.48 317.53 171.692 315.237 176.618 311.927C202.995 294.259 229.343 276.558 255.835 259.144C266.746 251.982 277.944 245.329 289.082 238.644C316.49 222.154 343.1 204.071 369.992 186.595C378.724 180.929 387.203 174.816 396.137 169.596C408.254 162.528 420.766 161.796 432.883 169.596C471.145 194.14 509.291 218.874 547.523 243.482C552.106 246.442 556.719 249.307 560.444 253.605C567.058 261.277 570.636 270.382 570.954 280.979C571.04 283.784 570.979 286.617 570.979 289.416C570.979 339.206 571.04 388.996 570.954 438.753C570.924 453.077 565.567 464.63 554.885 472.72C549.817 476.535 544.319 479.72 539.018 483.127C514.304 499.074 489.559 515.028 464.844 530.975C454.303 537.788 443.737 544.567 433.197 551.38C423.186 557.88 406.213 558.198 396.339 551.76C356.415 525.974 316.435 500.318 276.569 474.406C264.427 466.509 258.04 454.411 257.954 438.622C257.839 421.181 257.954 403.735 257.896 386.288C257.896 384.92 258.326 384.25 259.357 383.614C275.08 373.526 290.805 363.397 306.495 353.275C309.133 351.588 311.766 349.902 314.6 348.086C314.6 348.914 314.6 349.459 314.6 350.027C314.6 367.156 314.6 384.284 314.6 401.407C314.6 403.224 314.717 405.041 314.974 406.789C316.92 419.779 322.908 429.743 333.246 436.397C351.806 448.364 370.336 460.332 388.866 472.334C394.879 476.251 400.837 480.197 407.85 481.537C416.673 483.257 425.066 482.11 432.823 476.984C453.303 463.517 473.722 449.988 494.142 436.459C499.584 432.86 504.107 428.119 507.457 422.101C511.211 415.385 512.899 408.061 512.899 400.198C512.899 373.588 512.899 346.973 512.899 320.363C512.899 318.768 512.874 317.178 512.727 315.583C511.61 301.321 505.628 290.404 494.486 283.148C477.042 271.782 459.574 260.513 442.075 249.275C437.35 246.219 432.823 242.686 427.699 240.457C416.501 235.587 405.389 235.428 394.793 242.24C365.035 261.341 335.364 280.599 305.667 299.794C262.393 327.744 219.176 355.761 175.845 383.552C164.818 390.62 153.105 391.67 141.248 385.936C137.239 383.995 133.573 381.23 129.793 378.777C93.0493 355.091 56.3335 331.406 19.6178 307.725C10.5104 301.866 4.15279 293.589 1.31716 282.194C0.744479 279.929 0.458145 277.544 0.0572658 275.252C-2.54519e-06 221.102 0 166.922 0 112.74Z" fill="url(#paint0_linear_110_249)"/>
<defs>
<linearGradient id="paint0_linear_110_249" x1="318" y1="346.8" x2="542.91" y2="493.635" gradientUnits="userSpaceOnUse">
<stop stop-color="white"/>
<stop offset="1" stop-color="white" stop-opacity="0"/>
</linearGradient>
</defs>
</svg>
