<svg width="152" height="44" viewBox="0 0 152 44" fill="none" xmlns="http://www.w3.org/2000/svg">
<path d="M38.6469 27.3531L32.7913 22L38.6469 16.6468L38.6469 27.3531Z" fill="#001D75" fill-opacity="0.15"/>
<path opacity="0.5" d="M22.4382 27.3531L16.5826 22L22.4382 16.6468L22.4382 27.3531Z" fill="#001D75" fill-opacity="0.15"/>
<path opacity="0.25" d="M6.22954 27.3531L0.373997 22L6.22954 16.6468L6.22954 27.3531Z" fill="#001D75" fill-opacity="0.15"/>
<path d="M77.8125 9.3125C77.8125 8.05469 76.1172 7.5625 75.3516 8.60156C68.625 18.5 78.25 18.9375 78.25 23.75C78.25 25.7188 76.6094 27.3047 74.6953 27.25C72.7266 27.25 71.25 25.6641 71.25 23.75V19.0469C71.25 17.8438 69.7734 17.2969 68.9531 18.1719C67.4766 19.7031 66 22.3281 66 25.5C66 31.2969 70.7031 36 76.5 36C82.2422 36 87 31.2969 87 25.5C87 16.2031 77.8125 14.9453 77.8125 9.3125Z" fill="#F5409D"/>
<path opacity="0.15" d="M146.273 27.3531L140.417 22L146.273 16.6468L146.273 27.3531Z" fill="#F5409D"/>
<path opacity="0.5" d="M130.064 27.3531L124.209 22L130.064 16.6468L130.064 27.3531Z" fill="#F5409D"/>
<path d="M113.856 27.3531L108 22L113.856 16.6468L113.856 27.3531Z" fill="#F5409D"/>
</svg>
