<svg width="24" height="24" viewBox="0 0 24 24" fill="none" xmlns="http://www.w3.org/2000/svg">
<path d="M6 5C5.44772 5 5 5.44772 5 6C5 6.55228 5.44772 7 6 7V5ZM18 7C18.5523 7 19 6.55228 19 6C19 5.44772 18.5523 5 18 5V7ZM6 7H18V5H6V7Z" fill="#8247E5"/>
<path d="M6 11C5.44772 11 5 11.4477 5 12C5 12.5523 5.44772 13 6 13V11ZM18 13C18.5523 13 19 12.5523 19 12C19 11.4477 18.5523 11 18 11V13ZM6 13H18V11H6V13Z" fill="#8247E5"/>
<path d="M6 17C5.44772 17 5 17.4477 5 18C5 18.5523 5.44772 19 6 19V17ZM18 19C18.5523 19 19 18.5523 19 18C19 17.4477 18.5523 17 18 17V19ZM6 19H18V17H6V19Z" fill="#8247E5"/>
</svg>
