<svg width="16" height="16" viewBox="0 0 16 16" fill="none" xmlns="http://www.w3.org/2000/svg">
<path fill-rule="evenodd" clip-rule="evenodd" d="M0.833374 7.99998C0.833374 4.04384 4.0439 0.833313 8.00004 0.833313C11.9562 0.833313 15.1667 4.04384 15.1667 7.99998C15.1667 11.9561 11.9562 15.1666 8.00004 15.1666C4.0439 15.1666 0.833374 11.9561 0.833374 7.99998ZM8.00004 1.83331C4.59618 1.83331 1.83337 4.59612 1.83337 7.99998C1.83337 11.4038 4.59618 14.1666 8.00004 14.1666C11.4039 14.1666 14.1667 11.4038 14.1667 7.99998C14.1667 4.59612 11.4039 1.83331 8.00004 1.83331ZM8.00004 11.3333C7.63337 11.3333 7.33337 11.0333 7.33337 10.6666V7.99998C7.33337 7.63331 7.63337 7.33331 8.00004 7.33331C8.36671 7.33331 8.66671 7.63331 8.66671 7.99998V10.6666C8.66671 11.0333 8.36671 11.3333 8.00004 11.3333ZM7.33337 5.99998H8.66671V4.66665H7.33337V5.99998Z" fill="#9AA1B0"/>
</svg>
