<svg width="49" height="48" viewBox="0 0 49 48" fill="none" xmlns="http://www.w3.org/2000/svg">
<g filter="url(#filter0_d_2799_27765)">
<circle cx="24.75" cy="24" r="22" fill="white"/>
<circle cx="24.75" cy="24" r="21.5" stroke="#E1E1E1"/>
</g>
<path fill-rule="evenodd" clip-rule="evenodd" d="M27.8921 27.1421C29.4543 28.7043 29.4543 31.2369 27.8921 32.799C26.33 34.3611 23.7974 34.3611 22.2353 32.799C20.6781 31.2418 20.6732 28.7201 22.2207 27.1569C20.6574 28.7042 18.1358 28.6993 16.5786 27.1421C15.0165 25.58 15.0165 23.0474 16.5786 21.4853C18.1348 19.9291 20.654 19.9232 22.2175 21.4674C20.6732 19.9039 20.6791 17.3846 22.2353 15.8284C23.7974 14.2663 26.33 14.2663 27.8921 15.8284C29.4539 17.3902 29.4543 19.9221 27.8932 21.4843C29.4553 19.9232 31.9872 19.9235 33.549 21.4853C35.1111 23.0474 35.1111 25.58 33.549 27.1421C31.9869 28.7043 29.4543 28.7043 27.8921 27.1421ZM27.8837 21.4768C26.3235 23.037 23.7967 23.0421 22.2279 21.4927C23.7725 23.0565 23.7724 25.5724 22.2269 27.1337C23.7939 25.5827 26.3222 25.5882 27.8847 27.1496C26.3184 25.5822 26.3178 23.0427 27.8837 21.4768Z" fill="#F5409D"/>
<defs>
<filter id="filter0_d_2799_27765" x="0.75" y="0" width="48" height="48" filterUnits="userSpaceOnUse" color-interpolation-filters="sRGB">
<feFlood flood-opacity="0" result="BackgroundImageFix"/>
<feColorMatrix in="SourceAlpha" type="matrix" values="0 0 0 0 0 0 0 0 0 0 0 0 0 0 0 0 0 0 127 0" result="hardAlpha"/>
<feMorphology radius="2" operator="dilate" in="SourceAlpha" result="effect1_dropShadow_2799_27765"/>
<feOffset/>
<feComposite in2="hardAlpha" operator="out"/>
<feColorMatrix type="matrix" values="0 0 0 0 1 0 0 0 0 1 0 0 0 0 1 0 0 0 1 0"/>
<feBlend mode="normal" in2="BackgroundImageFix" result="effect1_dropShadow_2799_27765"/>
<feBlend mode="normal" in="SourceGraphic" in2="effect1_dropShadow_2799_27765" result="shape"/>
</filter>
</defs>
</svg>
