<svg width="152" height="44" viewBox="0 0 152 44" fill="none" xmlns="http://www.w3.org/2000/svg">
<path opacity="0.15" d="M5.72713 16.6469L11.5827 22L5.72713 27.3532L5.72713 16.6469Z" fill="#F5409D"/>
<path opacity="0.5" d="M21.9358 16.6469L27.7913 22L21.9358 27.3532L21.9358 16.6469Z" fill="#F5409D"/>
<path d="M38.1445 16.6469L44 22L38.1445 27.3532L38.1445 16.6469Z" fill="#F5409D"/>
<path d="M62 30.2031V32.5C62 34.4688 66.7031 36 72.5 36C78.2969 36 83 34.4688 83 32.5V30.2031C80.7031 31.7891 76.6016 32.5 72.5 32.5C68.3438 32.5 64.2422 31.7891 62 30.2031ZM79.5 15C85.2969 15 90 13.4688 90 11.5C90 9.58594 85.2969 8 79.5 8C73.7031 8 69 9.58594 69 11.5C69 13.4688 73.7031 15 79.5 15ZM62 24.4609V27.25C62 29.2188 66.7031 30.75 72.5 30.75C78.2969 30.75 83 29.2188 83 27.25V24.4609C80.7031 26.3203 76.6016 27.25 72.5 27.25C68.3438 27.25 64.2422 26.3203 62 24.4609ZM84.75 25.0625C87.8672 24.4609 90 23.3125 90 22V19.7031C88.6875 20.5781 86.8281 21.1797 84.75 21.5625V25.0625ZM72.5 16.75C66.7031 16.75 62 18.7188 62 21.125C62 23.5859 66.7031 25.5 72.5 25.5C78.2969 25.5 83 23.5859 83 21.125C83 18.7188 78.2969 16.75 72.5 16.75ZM84.4766 19.8672C87.7578 19.2656 90 18.1172 90 16.75V14.4531C88.0312 15.8203 84.6953 16.5312 81.1953 16.75C82.7812 17.5156 83.9844 18.5547 84.4766 19.8672Z" fill="#F5409D"/>
<path d="M113.353 16.6469L119.209 22L113.353 27.3532L113.353 16.6469Z" fill="#001D75" fill-opacity="0.15"/>
<path opacity="0.5" d="M129.562 16.6469L135.417 22L129.562 27.3532L129.562 16.6469Z" fill="#001D75" fill-opacity="0.15"/>
<path opacity="0.25" d="M145.77 16.6469L151.626 22L145.77 27.3532L145.77 16.6469Z" fill="#001D75" fill-opacity="0.15"/>
</svg>
