<svg width="32" height="32" viewBox="0 0 32 32" fill="none" xmlns="http://www.w3.org/2000/svg">
<path d="M11.9829 22.9331L17.3437 22.9331L17.3437 18.6664L11.9829 18.6664C5.87319 18.6664 4.30963 13.8664 4.30963 11.7331C4.30963 7.46644 8.82952 4.37311 11.9829 4.37311L18.8153 4.37311L15.0312 11.7331L19.8664 11.7331L25.7528 -0.00022316L11.9829 -0.000224381C5.67611 -0.000224941 -2.20657e-06 4.26644 -2.84982e-06 11.7331C-3.49307e-06 19.1998 5.67613 22.9331 11.9829 22.9331Z" fill="#1C5BFF"/>
<path fill-rule="evenodd" clip-rule="evenodd" d="M12.6091 22.9336H11.9829C10.6314 22.9336 9.30896 22.7622 8.06509 22.4193L3.25854 32.0002H19.1307C25.4375 32.0002 31.1136 27.7336 31.1136 20.2669C31.1136 12.8002 25.4375 9.06689 19.1307 9.06689H11.6677V13.3336H19.1307C25.2404 13.3336 26.804 18.1336 26.804 20.2669C26.804 24.5336 22.2841 27.6269 19.1307 27.6269H10.196L12.6091 22.9336Z" fill="#FF8B20"/>
</svg>
