<svg width="32" height="32" viewBox="0 0 32 32" fill="none" xmlns="http://www.w3.org/2000/svg">
<g clip-path="url(#clip0_1_137)">
<path d="M13.9003 0.557479C15.1995 -0.185826 16.8001 -0.185827 18.0993 0.557479L28.446 6.47724C29.7451 7.22055 30.5454 8.59423 30.5454 10.0808V21.9204C30.5454 23.407 29.7451 24.7807 28.446 25.524L18.0993 31.4437C16.8001 32.187 15.1995 32.187 13.9003 31.4437L3.55359 25.524C2.25442 24.7807 1.4541 23.407 1.4541 21.9204V10.0808C1.4541 8.59423 2.25442 7.22055 3.55359 6.47724L13.9003 0.557479Z" fill="#006DFF"/>
<path d="M7.27295 11.2407C7.28958 11.1702 7.29484 11.097 7.31497 11.0274C7.39464 10.7482 7.55485 10.5404 7.7991 10.3958C8.16241 10.1797 8.52135 9.95542 8.88204 9.7348C9.76625 9.19376 10.6496 8.65181 11.5338 8.1126C11.6529 8.04028 11.7545 8.00001 11.9234 8C11.9904 7.99999 12.2263 8.00092 12.3436 8.00092C12.425 7.99817 12.4985 8.01831 12.5703 8.05493C12.7218 8.13366 12.8645 8.22886 13.0098 8.31858C14.0183 8.93743 15.0269 9.5572 16.0354 10.1779C16.1623 10.2557 16.2945 10.3253 16.4092 10.4223C16.6824 10.6521 16.8364 10.9496 16.8417 11.3176C16.8487 11.8541 16.8434 12.3905 16.8443 12.9279C16.8443 12.9536 16.8347 12.9655 16.8154 12.9774C16.2621 13.3115 15.7088 13.6475 15.1547 13.9816C15.1424 13.9889 15.1293 13.9953 15.1118 14.0045C15.1118 13.9825 15.1118 13.9661 15.1118 13.9505C15.1118 13.458 15.1135 12.9655 15.1118 12.4729C15.11 12.018 14.9288 11.6655 14.5541 11.4284C13.9098 11.0201 13.2663 10.6118 12.6202 10.2063C12.4933 10.1266 12.3497 10.0854 12.2035 10.0644C11.9829 10.0332 11.7693 10.0598 11.5697 10.1651C11.4427 10.2319 11.3211 10.3115 11.1976 10.3866C10.6575 10.7153 10.1147 11.0393 9.57803 11.3735C9.20858 11.6032 9.00898 11.9465 9.00723 12.4015C9.0046 13.1852 9.00373 13.9688 9.00723 14.7524C9.00898 15.201 9.1972 15.5452 9.56489 15.7787C10.2049 16.1842 10.8448 16.5925 11.4874 16.9926C11.7001 17.1253 11.9374 17.1702 12.186 17.1464C12.362 17.1299 12.5213 17.064 12.6719 16.9688C13.4782 16.4607 14.2836 15.9517 15.0934 15.4509C15.4269 15.2449 15.7693 15.0536 16.1098 14.8614C16.9476 14.3872 17.7609 13.8672 18.583 13.3646C18.85 13.2016 19.1091 13.0259 19.3823 12.8757C19.7526 12.6725 20.1352 12.6515 20.5055 12.8757C21.6751 13.5816 22.8412 14.2929 24.0099 15.0005C24.15 15.0857 24.2909 15.168 24.4048 15.2916C24.607 15.5123 24.7164 15.7741 24.726 16.0789C24.7287 16.1595 24.7269 16.241 24.7269 16.3215C24.7269 17.7533 24.7287 19.1851 24.726 20.6159C24.7252 21.0279 24.5615 21.3602 24.2349 21.5927C24.08 21.7026 23.9119 21.7941 23.7499 21.8921C22.9944 22.3507 22.238 22.8094 21.4825 23.268C21.1603 23.4639 20.8373 23.6589 20.5151 23.8548C20.209 24.0418 19.6902 24.051 19.3884 23.8658C18.168 23.1243 16.9459 22.3864 15.7272 21.6413C15.356 21.4142 15.1608 21.0664 15.1582 20.6123C15.1547 20.1106 15.1582 19.6089 15.1564 19.1073C15.1564 19.0679 15.1696 19.0487 15.2011 19.0304C15.6817 18.7402 16.1623 18.4491 16.6421 18.1579C16.7226 18.1094 16.8032 18.0609 16.8898 18.0087C16.8898 18.0325 16.8898 18.0481 16.8898 18.0646C16.8898 18.5571 16.8898 19.0496 16.8898 19.5421C16.8898 19.5943 16.8933 19.6465 16.9012 19.6968C16.9607 20.0703 17.1437 20.3569 17.4598 20.5482C18.0271 20.8924 18.5935 21.2366 19.1599 21.5818C19.3437 21.6944 19.5258 21.8079 19.7403 21.8463C20.01 21.8958 20.2665 21.8628 20.5037 21.7154C21.1297 21.3282 21.7539 20.9391 22.3781 20.55C22.5444 20.4466 22.6827 20.3102 22.7852 20.1372C22.8998 19.944 22.9515 19.7334 22.9515 19.5073C22.9515 18.742 22.9515 17.9767 22.9515 17.2114C22.9515 17.1656 22.9506 17.1198 22.9462 17.074C22.9121 16.6639 22.7291 16.3499 22.3886 16.1412C21.8554 15.8144 21.3214 15.4903 20.7865 15.1671C20.642 15.0792 20.5037 14.9776 20.347 14.9136C20.0047 14.7735 19.665 14.7689 19.3411 14.9648C18.4315 15.5141 17.5245 16.0679 16.6167 16.62C15.2939 17.4237 13.9728 18.2293 12.6483 19.0285C12.3112 19.2318 11.9531 19.262 11.5907 19.0972C11.4681 19.0414 11.3561 18.9617 11.2405 18.8912C10.1173 18.2101 8.99497 17.529 7.87264 16.8479C7.59424 16.6795 7.39989 16.4415 7.31322 16.1137C7.29571 16.0487 7.28696 15.9801 7.2747 15.9141C7.27295 14.357 7.27295 12.7988 7.27295 11.2407Z" fill="white"/>
</g>
<defs>
<clipPath id="clip0_1_137">
<rect width="32" height="32" fill="white"/>
</clipPath>
</defs>
</svg>
