<svg width="56" height="57" viewBox="0 0 56 57" fill="none" xmlns="http://www.w3.org/2000/svg">
<circle cx="28" cy="28.5" r="28" fill="#001D75" fill-opacity="0.05"/>
<path d="M38.3438 25.5078C38.6953 25.1562 38.6953 24.6289 38.3438 24.2773L33.2812 19.4961C32.7539 19.0039 31.875 19.3555 31.875 20.1289V22.6602C26.707 22.6602 22.5938 23.6797 22.5938 28.7422C22.5938 30.7461 23.8242 32.75 25.1953 33.7695C25.6172 34.0859 26.2148 33.6992 26.0742 33.1719C24.6328 28.3906 26.7773 27.1602 31.875 27.1602V29.6562C31.875 30.4297 32.7539 30.7812 33.2812 30.2891L38.3438 25.5078ZM31.875 32.6094V35H20.625V23.75H22.3828C22.5234 23.75 22.6289 23.7148 22.6992 23.6445C23.2266 23.082 23.8242 22.6602 24.4922 22.3086C24.8789 22.0977 24.7383 21.5 24.3164 21.5H20.0625C19.1133 21.5 18.375 22.2734 18.375 23.1875V35.5625C18.375 36.5117 19.1133 37.25 20.0625 37.25H32.4375C33.3516 37.25 34.125 36.5117 34.125 35.5625V32.4688C34.125 32.1523 33.8086 31.9766 33.5273 32.0469C33.2812 32.1523 33 32.1875 32.7188 32.1875C32.5781 32.1875 32.4727 32.1875 32.332 32.1875C32.0859 32.1523 31.875 32.3281 31.875 32.6094Z" fill="#9AA1B0"/>
</svg>
