<svg width="12" height="12" viewBox="0 0 12 12" fill="none" xmlns="http://www.w3.org/2000/svg">
<path fill-rule="evenodd" clip-rule="evenodd" d="M11.0769 6C11.0769 8.80391 8.80391 11.0769 6 11.0769C3.19609 11.0769 0.923077 8.80391 0.923077 6C0.923077 3.19609 3.19609 0.923077 6 0.923077C8.80391 0.923077 11.0769 3.19609 11.0769 6ZM12 6C12 9.31371 9.31371 12 6 12C2.68629 12 0 9.31371 0 6C0 2.68629 2.68629 0 6 0C9.31371 0 12 2.68629 12 6ZM6.53362 8.19225H5.42039V9.23071H6.53362V8.19225ZM4.23239 4.35409C4.14378 4.60332 4.09947 4.88025 4.09947 5.18486H5.04655C5.04655 4.80825 5.12685 4.50917 5.28747 4.28763C5.45362 4.06055 5.70839 3.94702 6.05178 3.94702C6.12378 3.94702 6.20685 3.96363 6.30101 3.99686C6.39516 4.03009 6.48378 4.08271 6.56685 4.15471C6.64993 4.22671 6.71916 4.32363 6.77455 4.44548C6.83547 4.56178 6.86593 4.70302 6.86593 4.86917C6.86593 5.00763 6.84655 5.12671 6.80778 5.2264C6.77455 5.32609 6.7247 5.41748 6.65824 5.50055C6.59732 5.57809 6.52532 5.65009 6.44224 5.71655C6.3647 5.78302 6.28162 5.85502 6.19301 5.93255C6.08224 6.02671 5.98532 6.12363 5.90224 6.22332C5.8247 6.31748 5.75824 6.42825 5.70285 6.55563C5.64747 6.68302 5.60593 6.83255 5.57824 7.00425C5.55609 7.1704 5.54501 7.37532 5.54501 7.61902H6.44224C6.44224 7.41963 6.45885 7.25071 6.49209 7.11225C6.53085 6.97378 6.58347 6.85471 6.64993 6.75502C6.71639 6.64978 6.79393 6.55563 6.88255 6.47255C6.97116 6.38948 7.06809 6.30363 7.17332 6.21502L7.43916 5.9824C7.52778 5.89932 7.60532 5.80794 7.67178 5.70825C7.74378 5.60302 7.79916 5.48117 7.83793 5.34271C7.88224 5.19871 7.90439 5.02978 7.90439 4.83594C7.90439 4.57009 7.85732 4.33194 7.76316 4.12148C7.66901 3.91102 7.53885 3.73655 7.3727 3.59809C7.21209 3.45409 7.02101 3.34609 6.79947 3.27409C6.58347 3.19655 6.34809 3.15778 6.09332 3.15778C5.7887 3.15778 5.51178 3.20763 5.26255 3.30732C5.01885 3.40148 4.80839 3.53717 4.63116 3.7144C4.45947 3.89163 4.32655 4.10486 4.23239 4.35409Z" fill="#9AA1B0"/>
</svg>
