<svg width="56" height="57" viewBox="0 0 56 57" fill="none" xmlns="http://www.w3.org/2000/svg">
<circle cx="28" cy="28.5" r="28" fill="#001D75" fill-opacity="0.05"/>
<path d="M19.5625 23.75H34.1875C34.4688 23.75 34.75 23.5039 34.75 23.1875V20.9375C34.75 20.6562 34.4688 20.375 34.1875 20.375H19.5625C19.2461 20.375 19 20.6562 19 20.9375V23.1875C19 23.5039 19.2461 23.75 19.5625 23.75ZM36.4375 26.5625H21.8125C21.4961 26.5625 21.25 26.8438 21.25 27.125V29.375C21.25 29.6914 21.4961 29.9375 21.8125 29.9375H36.4375C36.7188 29.9375 37 29.6914 37 29.375V27.125C37 26.8438 36.7188 26.5625 36.4375 26.5625ZM34.1875 32.75H19.5625C19.2461 32.75 19 33.0312 19 33.3125V35.5625C19 35.8789 19.2461 36.125 19.5625 36.125H34.1875C34.4688 36.125 34.75 35.8789 34.75 35.5625V33.3125C34.75 33.0312 34.4688 32.75 34.1875 32.75Z" fill="#9AA1B0"/>
</svg>
