<svg width="24" height="24" viewBox="0 0 24 24" fill="none" xmlns="http://www.w3.org/2000/svg">
<path fill-rule="evenodd" clip-rule="evenodd" d="M15.1421 15.1421C16.7043 16.7043 16.7043 19.2369 15.1421 20.799C13.58 22.3611 11.0474 22.3611 9.48528 20.799C7.9281 19.2418 7.92321 16.7201 9.47066 15.1569C7.90738 16.7042 5.38577 16.6993 3.82861 15.1421C2.26649 13.58 2.26652 11.0474 3.82861 9.48527C5.38476 7.92912 7.90405 7.92318 9.46754 9.46744C7.92319 7.90393 7.92913 5.38459 9.48528 3.82844C11.0474 2.26632 13.58 2.26632 15.1421 3.82844C16.7039 5.3902 16.7043 7.92209 15.1432 9.48426C16.7053 7.92318 19.2372 7.92354 20.799 9.48529C22.3611 11.0474 22.3611 13.58 20.799 15.1421C19.2369 16.7043 16.7043 16.7043 15.1421 15.1421ZM15.1337 9.47683C13.5735 11.037 11.0467 11.0421 9.47791 9.49266C11.0225 11.0565 11.0224 13.5724 9.47687 15.1337C11.0439 13.5827 13.5722 13.5882 15.1347 15.1496C13.5684 13.5822 13.5678 11.0427 15.1337 9.47683Z" fill="#F5409D"/>
</svg>
