<svg width="54" height="54" viewBox="0 0 54 54" fill="none" xmlns="http://www.w3.org/2000/svg">
<g filter="url(#filter0_d_2480_17124)">
<circle cx="27" cy="25" r="22" fill="#F2F5FA"/>
<circle cx="27" cy="25" r="21.5" stroke="white"/>
</g>
<g filter="url(#filter1_d_2480_17124)">
<path fill-rule="evenodd" clip-rule="evenodd" d="M24.8022 18.35C24.8022 17.7899 24.8022 17.5099 24.9112 17.296C25.0071 17.1078 25.1601 16.9549 25.3483 16.859C25.5622 16.75 25.8422 16.75 26.4022 16.75H26.8116C27.3717 16.75 27.6517 16.75 27.8656 16.859C28.0538 16.9549 28.2068 17.1078 28.3026 17.296C28.4116 17.5099 28.4116 17.7899 28.4116 18.35V18.7594C28.4116 19.3194 28.4116 19.5995 28.3026 19.8134C28.2068 20.0015 28.0538 20.1545 27.8656 20.2504C27.6517 20.3594 27.3717 20.3594 26.8116 20.3594H26.4022C25.8422 20.3594 25.5622 20.3594 25.3483 20.2504C25.1601 20.1545 25.0071 20.0015 24.9112 19.8134C24.8022 19.5995 24.8022 19.3194 24.8022 18.7594V18.35ZM18.3569 24.7953C18.3569 24.2353 18.3569 23.9552 18.4659 23.7413C18.5618 23.5532 18.7148 23.4002 18.9029 23.3043C19.1169 23.1953 19.3969 23.1953 19.9569 23.1953H20.3663C20.9264 23.1953 21.2064 23.1953 21.4203 23.3043C21.6085 23.4002 21.7614 23.5532 21.8573 23.7413C21.9663 23.9552 21.9663 24.2353 21.9663 24.7953V25.2047C21.9663 25.7647 21.9663 26.0448 21.8573 26.2587C21.7614 26.4468 21.6085 26.5998 21.4203 26.6957C21.2064 26.8047 20.9264 26.8047 20.3663 26.8047H19.9569C19.3969 26.8047 19.1169 26.8047 18.9029 26.6957C18.7148 26.5998 18.5618 26.4468 18.4659 26.2587C18.3569 26.0448 18.3569 25.7647 18.3569 25.2047V24.7953ZM24.9112 30.1866C24.8022 30.4005 24.8022 30.6806 24.8022 31.2406V31.65C24.8022 32.2101 24.8022 32.4901 24.9112 32.704C25.0071 32.8922 25.1601 33.0451 25.3483 33.141C25.5622 33.25 25.8422 33.25 26.4022 33.25H26.8116C27.3717 33.25 27.6517 33.25 27.8656 33.141C28.0538 33.0451 28.2068 32.8922 28.3026 32.704C28.4116 32.4901 28.4116 32.2101 28.4116 31.65V31.2406C28.4116 30.6806 28.4116 30.4005 28.3026 30.1866C28.2068 29.9985 28.0538 29.8455 27.8656 29.7496C27.6517 29.6406 27.3717 29.6406 26.8116 29.6406H26.4022C25.8422 29.6406 25.5622 29.6406 25.3483 29.7496C25.1601 29.8455 25.0071 29.9985 24.9112 30.1866ZM18.3569 31.0844C18.3569 30.6712 18.3569 30.4646 18.4171 30.2991C18.5181 30.0209 18.7372 29.8018 19.0154 29.7007C19.1809 29.6406 19.3875 29.6406 19.8007 29.6406H20.3663C20.9264 29.6406 21.2064 29.6406 21.4203 29.7496C21.6085 29.8455 21.7614 29.9985 21.8573 30.1866C21.9663 30.4005 21.9663 30.6806 21.9663 31.2406V31.8062C21.9663 32.2194 21.9663 32.426 21.9062 32.5915C21.8051 32.8697 21.586 33.0888 21.3078 33.1899C21.1424 33.25 20.9358 33.25 20.5226 33.25C19.9028 33.25 19.5929 33.25 19.3447 33.1598C18.9274 33.0082 18.5987 32.6795 18.4471 32.2623C18.3569 32.0141 18.3569 31.7042 18.3569 31.0844ZM31.3077 17.4085C31.2476 17.574 31.2476 17.7806 31.2476 18.1938V18.7594C31.2476 19.3194 31.2476 19.5995 31.3566 19.8134C31.4524 20.0015 31.6054 20.1545 31.7936 20.2504C32.0075 20.3594 32.2875 20.3594 32.8476 20.3594H33.4132C33.8264 20.3594 34.033 20.3594 34.1984 20.2993C34.4766 20.1982 34.6957 19.9791 34.7968 19.7009C34.8569 19.5354 34.8569 19.3288 34.8569 18.9156C34.8569 18.2958 34.8569 17.9859 34.7668 17.7377C34.6151 17.3205 34.2865 16.9918 33.8692 16.8402C33.621 16.75 33.3111 16.75 32.6913 16.75C32.2781 16.75 32.0715 16.75 31.9061 16.8101C31.6279 16.9112 31.4088 17.1303 31.3077 17.4085ZM31.2476 24.7953C31.2476 24.2353 31.2476 23.9552 31.3566 23.7413C31.4524 23.5532 31.6054 23.4002 31.7936 23.3043C32.0075 23.1953 32.2875 23.1953 32.8476 23.1953H33.2569C33.817 23.1953 34.097 23.1953 34.3109 23.3043C34.4991 23.4002 34.6521 23.5532 34.7479 23.7413C34.8569 23.9552 34.8569 24.2353 34.8569 24.7953V25.2047C34.8569 25.7647 34.8569 26.0448 34.7479 26.2587C34.6521 26.4468 34.4991 26.5998 34.3109 26.6957C34.097 26.8047 33.817 26.8047 33.2569 26.8047H32.8476C32.2875 26.8047 32.0075 26.8047 31.7936 26.6957C31.6054 26.5998 31.4524 26.4468 31.3566 26.2587C31.2476 26.0448 31.2476 25.7647 31.2476 25.2047V24.7953ZM24.9112 23.7413C24.8022 23.9552 24.8022 24.2353 24.8022 24.7953V25.2047C24.8022 25.7647 24.8022 26.0448 24.9112 26.2587C25.0071 26.4468 25.1601 26.5998 25.3483 26.6957C25.5622 26.8047 25.8422 26.8047 26.4022 26.8047H26.8116C27.3717 26.8047 27.6517 26.8047 27.8656 26.6957C28.0538 26.5998 28.2068 26.4468 28.3026 26.2587C28.4116 26.0448 28.4116 25.7647 28.4116 25.2047V24.7953C28.4116 24.2353 28.4116 23.9552 28.3026 23.7413C28.2068 23.5532 28.0538 23.4002 27.8656 23.3043C27.6517 23.1953 27.3717 23.1953 26.8116 23.1953H26.4022C25.8422 23.1953 25.5622 23.1953 25.3483 23.3043C25.1601 23.4002 25.0071 23.5532 24.9112 23.7413Z" fill="#F5409D"/>
</g>
<defs>
<filter id="filter0_d_2480_17124" x="0" y="0" width="54" height="54" filterUnits="userSpaceOnUse" color-interpolation-filters="sRGB">
<feFlood flood-opacity="0" result="BackgroundImageFix"/>
<feColorMatrix in="SourceAlpha" type="matrix" values="0 0 0 0 0 0 0 0 0 0 0 0 0 0 0 0 0 0 127 0" result="hardAlpha"/>
<feOffset dy="2"/>
<feGaussianBlur stdDeviation="2.5"/>
<feComposite in2="hardAlpha" operator="out"/>
<feColorMatrix type="matrix" values="0 0 0 0 0.950625 0 0 0 0 0.95875 0 0 0 0 0.975 0 0 0 1 0"/>
<feBlend mode="normal" in2="BackgroundImageFix" result="effect1_dropShadow_2480_17124"/>
<feBlend mode="normal" in="SourceGraphic" in2="effect1_dropShadow_2480_17124" result="shape"/>
</filter>
<filter id="filter1_d_2480_17124" x="13.1785" y="15.5713" width="26.8572" height="26.8569" filterUnits="userSpaceOnUse" color-interpolation-filters="sRGB">
<feFlood flood-opacity="0" result="BackgroundImageFix"/>
<feColorMatrix in="SourceAlpha" type="matrix" values="0 0 0 0 0 0 0 0 0 0 0 0 0 0 0 0 0 0 127 0" result="hardAlpha"/>
<feOffset dy="4"/>
<feGaussianBlur stdDeviation="2"/>
<feComposite in2="hardAlpha" operator="out"/>
<feColorMatrix type="matrix" values="0 0 0 0 0 0 0 0 0 0 0 0 0 0 0 0 0 0 0.25 0"/>
<feBlend mode="normal" in2="BackgroundImageFix" result="effect1_dropShadow_2480_17124"/>
<feBlend mode="normal" in="SourceGraphic" in2="effect1_dropShadow_2480_17124" result="shape"/>
</filter>
</defs>
</svg>
