<svg width="15" height="13" viewBox="0 0 15 13" fill="none" xmlns="http://www.w3.org/2000/svg">
<path d="M12.9388 3.25H2.52083C2.27474 3.25 2.08333 3.05859 2.08333 2.8125C2.08333 2.59375 2.27474 2.375 2.52083 2.375H13.0208C13.2396 2.375 13.4583 2.18359 13.4583 1.9375C13.4583 1.22656 12.8568 0.625 12.1458 0.625H2.08333C1.09896 0.625 0.333333 1.41797 0.333333 2.375V11.125C0.333333 12.1094 1.09896 12.875 2.08333 12.875H12.9388C13.7044 12.875 14.3333 12.3008 14.3333 11.5625V4.5625C14.3333 3.85156 13.7044 3.25 12.9388 3.25ZM11.7083 8.9375C11.2161 8.9375 10.8333 8.55469 10.8333 8.0625C10.8333 7.59766 11.2161 7.1875 11.7083 7.1875C12.1732 7.1875 12.5833 7.59766 12.5833 8.0625C12.5833 8.55469 12.1732 8.9375 11.7083 8.9375Z" fill="white"/>
</svg>
