<svg width="107" height="30" viewBox="0 0 107 30" fill="none" xmlns="http://www.w3.org/2000/svg">
<g clip-path="url(#clip0_2369_2905)">
<path d="M50.242 16.888C52.0598 17.226 54.1673 17.85 54.1673 19.8C54.1673 21.62 52.3496 22.634 50.0839 22.634C47.4231 22.634 45.7897 21.334 45.1838 18.76H41.8907C42.3122 22.92 45.3682 25.338 49.9258 25.338C53.6931 25.338 57.5131 23.414 57.5131 19.592C57.5131 15.822 54.3254 14.574 50.9796 13.95L48.635 13.508C46.9752 13.196 45.7897 12.468 45.7897 11.012C45.7897 9.16601 47.9763 8.51601 49.4516 8.51601C51.3485 8.51601 53.3243 9.14001 53.8776 11.428H57.118C56.354 7.50201 53.4297 5.81201 49.6361 5.81201C46.1322 5.81201 42.4176 7.60601 42.4176 11.116C42.4176 14.314 44.894 15.822 47.9237 16.446L50.242 16.888Z" fill="black"/>
<path d="M60.0537 6.15001V9.27001H63.1888V6.15001H60.0537ZM60.0537 11.012V25H63.1888V11.012H60.0537Z" fill="black"/>
<path d="M66.7171 6.15001V25H69.8521V20.528L71.3538 18.942L75.806 25H79.4679L73.435 16.758L78.862 11.012H75.0947L69.8521 16.628V6.15001H66.7171Z" fill="black"/>
<path d="M80.8156 6.15001V25H83.9506V20.528L85.4523 18.942L89.9045 25H93.5665L87.5335 16.758L92.9605 11.012H89.1932L83.9506 16.628V6.15001H80.8156Z" fill="black"/>
<path d="M103.43 19.488C103.43 21.88 102.06 23.024 99.7414 23.024C98.1607 23.024 97.1333 22.296 97.1333 21.074C97.1333 19.488 98.9774 18.838 103.43 18.422V19.488ZM99.0564 25.338C101.164 25.338 102.797 24.636 103.719 23.102C103.798 24.064 103.878 24.402 103.983 25H106.854C106.565 23.83 106.433 21.984 106.433 20.216C106.433 18.942 106.486 17.278 106.486 16.602C106.565 12.13 103.904 10.596 100.505 10.596C97.0806 10.596 94.6832 12.572 94.4725 15.406H97.5548C97.6338 13.716 98.8193 12.884 100.4 12.884C101.981 12.884 103.351 13.612 103.351 16.004V16.264C98.1871 16.81 93.8139 17.642 93.8139 21.152C93.8139 23.7 95.9741 25.338 99.0564 25.338Z" fill="black"/>
<path d="M11.5511 21.5L16.7187 21.5L16.7187 17.5L11.5511 17.5C5.66156 17.5 4.15434 13 4.15434 11C4.15434 7 8.51135 4.1 11.5511 4.1L18.1373 4.1L14.4896 11L19.1506 11L24.8248 5.72205e-06L11.5511 4.57681e-06C5.47157 4.05227e-06 7.27223e-06 4 6.65215e-06 11C6.03208e-06 18 5.4716 21.5 11.5511 21.5Z" fill="#8247E5"/>
<path fill-rule="evenodd" clip-rule="evenodd" d="M12.1547 21.5H11.5511C10.2484 21.5 8.97354 21.3393 7.77448 21.0179L3.14116 30H18.4413C24.5209 30 29.9924 26 29.9924 19C29.9924 12 24.5209 8.5 18.4413 8.5H11.2472V12.5H18.4413C24.3309 12.5 25.8381 17 25.8381 19C25.8381 23 21.4811 25.9 18.4413 25.9H9.82865L12.1547 21.5Z" fill="#FF8B20"/>
</g>
<defs>
<clipPath id="clip0_2369_2905">
<rect width="107" height="30" fill="white"/>
</clipPath>
</defs>
</svg>
