<svg width="24" height="24" viewBox="0 0 24 24" fill="none" xmlns="http://www.w3.org/2000/svg">
<circle cx="12" cy="12" r="12" fill="white"/>
<path d="M5.25 8.43055C5.26287 8.37768 5.26693 8.32275 5.2825 8.27057C5.34412 8.06116 5.46803 7.9053 5.65694 7.79682C5.93794 7.63478 6.21556 7.46657 6.49453 7.3011C7.17841 6.89532 7.86162 6.48886 8.5455 6.08445C8.63759 6.03021 8.71622 6.00001 8.84681 6C8.89865 6 9.08108 6.00069 9.17183 6.00069C9.2348 5.99863 9.29167 6.01373 9.3472 6.0412C9.46434 6.10024 9.57471 6.17165 9.68711 6.23893C10.4671 6.70307 11.2472 7.1679 12.0272 7.63341C12.1254 7.69177 12.2276 7.74395 12.3163 7.81673C12.5276 7.98907 12.6468 8.21221 12.6508 8.48822C12.6562 8.89056 12.6522 9.29291 12.6529 9.69594C12.6529 9.71516 12.6454 9.72409 12.6305 9.73302C12.2026 9.98362 11.7746 10.2356 11.346 10.4862C11.3365 10.4917 11.3264 10.4965 11.3128 10.5034C11.3128 10.4869 11.3128 10.4745 11.3128 10.4629C11.3128 10.0935 11.3142 9.72409 11.3128 9.3547C11.3115 9.01346 11.1713 8.74913 10.8815 8.5713C10.3832 8.26508 9.8855 7.95885 9.38579 7.65469C9.28761 7.59496 9.17657 7.56406 9.06349 7.54827C8.89286 7.52493 8.72764 7.54484 8.57326 7.6238C8.47508 7.67392 8.38096 7.73365 8.28549 7.78995C7.86771 8.03644 7.4479 8.27949 7.03283 8.5301C6.74709 8.70244 6.59271 8.95991 6.59136 9.30115C6.58933 9.88887 6.58865 10.4766 6.59136 11.0643C6.59271 11.4008 6.73829 11.6589 7.02268 11.834C7.51764 12.1382 8.01261 12.4444 8.50961 12.7444C8.67415 12.844 8.85765 12.8776 9.04995 12.8598C9.18605 12.8474 9.30928 12.798 9.42574 12.7266C10.0494 12.3455 10.6723 11.9638 11.2986 11.5882C11.5566 11.4337 11.8214 11.2902 12.0848 11.146C12.7328 10.7904 13.3618 10.4004 13.9976 10.0234C14.2041 9.90123 14.4045 9.76941 14.6158 9.6568C14.9022 9.50438 15.1981 9.48859 15.4845 9.6568C16.3892 10.1862 17.2911 10.7197 18.195 11.2504C18.3033 11.3142 18.4124 11.376 18.5004 11.4687C18.6568 11.6342 18.7414 11.8306 18.7489 12.0592C18.7509 12.1196 18.7496 12.1807 18.7496 12.2411C18.7496 13.315 18.7509 14.3888 18.7489 15.462C18.7482 15.7709 18.6216 16.0202 18.369 16.1946C18.2492 16.2769 18.1192 16.3456 17.9939 16.4191C17.4096 16.7631 16.8245 17.107 16.2402 17.451C15.991 17.598 15.7412 17.7442 15.492 17.8911C15.2553 18.0314 14.854 18.0382 14.6205 17.8994C13.6766 17.3432 12.7314 16.7898 11.7889 16.2309C11.5018 16.0607 11.3508 15.7998 11.3487 15.4592C11.346 15.083 11.3487 14.7067 11.3474 14.3305C11.3474 14.3009 11.3575 14.2865 11.3819 14.2728C11.7536 14.0551 12.1254 13.8368 12.4964 13.6185C12.5587 13.5821 12.621 13.5457 12.6881 13.5065C12.6881 13.5244 12.6881 13.5361 12.6881 13.5484C12.6881 13.9178 12.6881 14.2872 12.6881 14.6566C12.6881 14.6957 12.6908 14.7349 12.6969 14.7726C12.7429 15.0528 12.8844 15.2677 13.1289 15.4112C13.5676 15.6693 14.0057 15.9275 14.4438 16.1863C14.586 16.2708 14.7268 16.3559 14.8927 16.3847C15.1013 16.4218 15.2997 16.3971 15.4832 16.2866C15.9673 15.9961 16.4501 15.7043 16.9329 15.4125C17.0615 15.3349 17.1685 15.2326 17.2477 15.1029C17.3364 14.958 17.3764 14.8001 17.3764 14.6305C17.3764 14.0565 17.3764 13.4825 17.3764 12.9085C17.3764 12.8742 17.3757 12.8399 17.3723 12.8055C17.3459 12.4979 17.2044 12.2624 16.941 12.1059C16.5286 11.8608 16.1156 11.6177 15.7019 11.3754C15.5902 11.3094 15.4832 11.2332 15.362 11.1852C15.0972 11.0801 14.8345 11.0767 14.584 11.2236C13.8805 11.6356 13.179 12.051 12.4768 12.465C11.4537 13.0678 10.4319 13.672 9.40746 14.2714C9.14677 14.4238 8.86983 14.4465 8.58951 14.3229C8.49472 14.281 8.40804 14.2213 8.31867 14.1684C7.44993 13.6576 6.58188 13.1468 5.71382 12.6359C5.4985 12.5096 5.34818 12.3311 5.28115 12.0853C5.2676 12.0365 5.26083 11.985 5.25135 11.9356C5.25 10.7677 5.25 9.59913 5.25 8.43055Z" fill="#794EDD"/>
</svg>
