<svg width="30" height="30" viewBox="0 0 30 30" fill="none" xmlns="http://www.w3.org/2000/svg">
<path d="M10.9088 10.5156H18.6248C20.419 10.5123 22.1693 11.0698 23.6311 12.1103C24.0337 12.3935 24.4106 12.7115 24.7577 13.0607C25.9818 14.2713 26.8176 15.8192 27.1585 17.5068C27.4994 19.1944 27.3298 20.9453 26.6715 22.5362C26.0132 24.1271 24.896 25.4858 23.4624 26.4392C22.0287 27.3925 20.3436 27.8972 18.6219 27.8889H6.25781L10.6517 19.3727" stroke="#FF8B20" stroke-width="4" stroke-miterlimit="10"/>
<path d="M16.6853 10.5163L21.0907 2.0001H10.7084C8.86104 1.99116 7.05918 2.57275 5.56568 3.66003C4.07219 4.74732 2.9652 6.28339 2.40624 8.04415C1.84727 9.80491 1.86557 11.6982 2.45847 13.4478C3.05137 15.1975 4.18784 16.7119 5.70208 17.7701C7.16375 18.8138 8.91519 19.3744 10.7113 19.3733H16.5524" stroke="#1C5BFF" stroke-width="4" stroke-miterlimit="10"/>
<path d="M10.9088 10.5156H18.6248C20.419 10.5123 22.1693 11.0698 23.6311 12.1103C24.0337 12.3935 24.4106 12.7115 24.7577 13.0607C25.9818 14.2713 26.8176 15.8192 27.1585 17.5068C27.4994 19.1944 27.3298 20.9453 26.6715 22.5362C26.0133 24.1271 24.896 25.4858 23.4624 26.4392C22.0287 27.3925 20.3436 27.8972 18.6219 27.8889H6.25781" stroke="#FF8B20" stroke-width="4" stroke-miterlimit="10"/>
</svg>
